<svg width="282" height="64" viewBox="0 0 282 64" fill="none" xmlns="http://www.w3.org/2000/svg">
<g filter="url(#filter0_dd_12259_8399)">
<path d="M10 9.69001C10 4.33837 14.3384 0 19.69 0H323.31C328.662 0 333 4.33836 333 9.69V34.765C333 40.1166 328.662 44.455 323.31 44.455H19.69C14.3384 44.455 10 40.1166 10 34.765V9.69001Z" fill="white"/>
<path d="M19.6904 0.40332H323.31C328.438 0.40332 332.597 4.56178 332.597 9.69043V34.7646C332.597 39.8933 328.438 44.0508 323.31 44.0508H19.6904C14.5618 44.0508 10.4033 39.8933 10.4033 34.7646V9.69043C10.4033 4.56177 14.5618 0.40332 19.6904 0.40332Z" stroke="#D0D5DD" stroke-width="0.8075"/>
<g opacity="0.3">
<path d="M30.9946 10.4971C36.7921 10.4971 41.4925 15.1967 41.4927 20.9941C41.4927 26.7917 36.7922 31.4922 30.9946 31.4922C25.1972 31.492 20.4976 26.7916 20.4976 20.9941C20.4977 15.1968 25.1973 10.4972 30.9946 10.4971Z" stroke="#00B964" stroke-width="1.615"/>
</g>
<g opacity="0.1">
<path d="M30.9951 6.45996C39.0224 6.46011 45.5303 12.9678 45.5303 20.9951C45.5301 29.0224 39.0224 35.5301 30.9951 35.5303C22.9678 35.5303 16.4601 29.0224 16.46 20.9951C16.46 12.9677 22.9677 6.45996 30.9951 6.45996Z" stroke="#00B964" stroke-width="1.615"/>
</g>
<path d="M27.9669 20.9948L29.9857 23.0135L34.0232 18.976M37.7242 20.9948C37.7242 24.7112 34.7115 27.724 30.995 27.724C27.2786 27.724 24.2659 24.7112 24.2659 20.9948C24.2659 17.2784 27.2786 14.2656 30.995 14.2656C34.7115 14.2656 37.7242 17.2784 37.7242 20.9948Z" stroke="#00B964" stroke-width="1.34583" stroke-linecap="round" stroke-linejoin="round"/>
<path d="M53.2785 26.5352H52.1254L55.1099 18.3616H56.3422L59.338 26.5352H58.1736L57.4388 24.5003H54.002L53.2785 26.5352ZM55.5847 20.1252L54.3412 23.5393H57.1109L55.8561 20.1252C55.7995 19.967 55.743 19.7748 55.7204 19.6504C55.6978 19.7635 55.6413 19.9556 55.5847 20.1252ZM62.2497 26.6708C60.6443 26.6708 59.6721 25.4725 59.6721 23.788C59.6721 22.0923 60.6556 20.8487 62.2949 20.8487C63.1427 20.8487 63.855 21.2218 64.228 21.9001V18.2147H65.2794V26.5352H64.3298L64.2393 25.529C63.8776 26.2864 63.1314 26.6708 62.2497 26.6708ZM62.4644 25.7099C63.5497 25.7099 64.2167 24.9072 64.2167 23.7541C64.2167 22.6236 63.5497 21.8097 62.4644 21.8097C61.3792 21.8097 60.7461 22.6236 60.7461 23.7541C60.7461 24.8959 61.3792 25.7099 62.4644 25.7099ZM68.4291 26.6708C67.242 26.6708 66.5411 26.0038 66.5411 24.9977C66.5411 23.9802 67.2986 23.3471 68.5986 23.2454L70.3396 23.1097V22.9515C70.3396 22.0245 69.7857 21.6966 69.0395 21.6966C68.1464 21.6966 67.6377 22.0923 67.6377 22.7593H66.7107C66.7107 21.6062 67.6603 20.8487 69.0848 20.8487C70.4527 20.8487 71.3797 21.5723 71.3797 23.0645V26.5352H70.4753L70.3622 25.6421C70.0796 26.2751 69.3222 26.6708 68.4291 26.6708ZM68.7343 25.8456C69.7405 25.8456 70.3509 25.1899 70.3509 24.1498V23.8559L68.9378 23.9689C67.9995 24.0594 67.6151 24.4211 67.6151 24.9638C67.6151 25.5516 68.0447 25.8456 68.7343 25.8456ZM78.8253 26.5352H76.1234V18.3616H78.7801C81.222 18.3616 82.8725 20.0122 82.8725 22.4541C82.8725 24.8846 81.2446 26.5352 78.8253 26.5352ZM78.701 19.3791H77.2313V25.5064H78.7462C80.5663 25.5064 81.7194 24.3307 81.7194 22.4541C81.7194 20.5548 80.5663 19.3791 78.701 19.3791ZM83.7394 23.7654C83.7394 22.0584 84.9603 20.86 86.6222 20.86C88.2727 20.86 89.4936 22.0584 89.4936 23.7654C89.4936 25.4725 88.2727 26.6708 86.6222 26.6708C84.9603 26.6708 83.7394 25.4725 83.7394 23.7654ZM84.8134 23.7654C84.8134 24.9185 85.5482 25.7212 86.6222 25.7212C87.6848 25.7212 88.431 24.9185 88.431 23.7654C88.431 22.6123 87.6848 21.8097 86.6222 21.8097C85.5482 21.8097 84.8134 22.6123 84.8134 23.7654ZM91.7327 26.5352H90.67V21.007H91.6309L91.744 21.8549C92.0944 21.2218 92.7953 20.8487 93.5754 20.8487C95.0337 20.8487 95.7007 21.7418 95.7007 23.155V26.5352H94.638V23.3924C94.638 22.2732 94.118 21.821 93.304 21.821C92.3092 21.821 91.7327 22.5332 91.7327 23.6072V26.5352ZM98.7892 26.6708C97.6022 26.6708 96.9012 26.0038 96.9012 24.9977C96.9012 23.9802 97.6587 23.3471 98.9588 23.2454L100.7 23.1097V22.9515C100.7 22.0245 100.146 21.6966 99.3996 21.6966C98.5066 21.6966 97.9978 22.0923 97.9978 22.7593H97.0708C97.0708 21.6062 98.0204 20.8487 99.4449 20.8487C100.813 20.8487 101.74 21.5723 101.74 23.0645V26.5352H100.835L100.722 25.6421C100.44 26.2751 99.6823 26.6708 98.7892 26.6708ZM99.0944 25.8456C100.101 25.8456 100.711 25.1899 100.711 24.1498V23.8559L99.2979 23.9689C98.3596 24.0594 97.9752 24.4211 97.9752 24.9638C97.9752 25.5516 98.4048 25.8456 99.0944 25.8456ZM104.683 26.5352H103.621V21.9001H102.535V21.007H103.621V19.2773H104.683V21.007H105.769V21.9001H104.683V26.5352ZM109.052 26.6708C107.424 26.6708 106.305 25.4951 106.305 23.7767C106.305 22.0471 107.402 20.8487 109.007 20.8487C110.579 20.8487 111.607 21.934 111.607 23.5732V23.9689L107.334 23.9802C107.413 25.1446 108.024 25.789 109.075 25.789C109.9 25.789 110.443 25.4499 110.624 24.8168H111.619C111.347 26.0038 110.42 26.6708 109.052 26.6708ZM109.007 21.7418C108.08 21.7418 107.492 22.2958 107.357 23.268H110.545C110.545 22.3523 109.945 21.7418 109.007 21.7418ZM115.01 26.6708C113.405 26.6708 112.432 25.4725 112.432 23.788C112.432 22.0923 113.416 20.8487 115.055 20.8487C115.903 20.8487 116.615 21.2218 116.988 21.9001V18.2147H118.04V26.5352H117.09L117 25.529C116.638 26.2864 115.892 26.6708 115.01 26.6708ZM115.225 25.7099C116.31 25.7099 116.977 24.9072 116.977 23.7541C116.977 22.6236 116.31 21.8097 115.225 21.8097C114.14 21.8097 113.506 22.6236 113.506 23.7541C113.506 24.8959 114.14 25.7099 115.225 25.7099ZM122.89 26.5352V23.6298H122.008V22.9063H122.89V21.9792H122.008V21.2557H122.89V18.4634H124.066L125.14 21.2557H126.474V18.4634H127.367V21.2557H128.249V21.9792H127.367V22.9063H128.249V23.6298H127.367V26.5352H126.18L125.106 23.6298H123.772V26.5352H122.89ZM123.772 22.9063H124.835L124.495 21.9792H123.749L123.772 22.9063ZM126.474 24.9412H126.519L126.485 23.6298H126.01L126.474 24.9412ZM123.749 21.2557H124.224L123.749 19.8539H123.704L123.749 21.2557ZM125.739 22.9063H126.496L126.474 21.9792H125.4L125.739 22.9063ZM130.479 19.3565H128.76V18.3616H131.541V26.5352H130.479V19.3565ZM133.037 22.4541C133.037 19.9217 134.348 18.2034 136.406 18.2034C138.452 18.2034 139.763 19.9217 139.763 22.4541C139.763 24.9977 138.508 26.6821 136.406 26.6821C134.291 26.6821 133.037 24.9977 133.037 22.4541ZM134.133 22.4541C134.133 24.4663 134.97 25.6873 136.406 25.6873C137.841 25.6873 138.667 24.4663 138.667 22.4541C138.667 20.4192 137.841 19.1982 136.406 19.1982C134.97 19.1982 134.133 20.4192 134.133 22.4541ZM140.875 22.4541C140.875 19.9217 142.186 18.2034 144.244 18.2034C146.29 18.2034 147.602 19.9217 147.602 22.4541C147.602 24.9977 146.347 26.6821 144.244 26.6821C142.13 26.6821 140.875 24.9977 140.875 22.4541ZM141.972 22.4541C141.972 24.4663 142.808 25.6873 144.244 25.6873C145.68 25.6873 146.505 24.4663 146.505 22.4541C146.505 20.4192 145.68 19.1982 144.244 19.1982C142.808 19.1982 141.972 20.4192 141.972 22.4541ZM150.059 26.0943C150.059 26.9082 149.448 27.5865 148.645 27.6883V27.2135C149.109 27.1343 149.437 26.8291 149.437 26.4786C149.358 26.5239 149.267 26.5465 149.132 26.5465C148.759 26.5465 148.442 26.2751 148.442 25.8569C148.442 25.4047 148.747 25.0768 149.199 25.0768C149.674 25.0768 150.059 25.4725 150.059 26.0943ZM150.91 22.4541C150.91 19.9217 152.222 18.2034 154.279 18.2034C156.326 18.2034 157.637 19.9217 157.637 22.4541C157.637 24.9977 156.382 26.6821 154.279 26.6821C152.165 26.6821 150.91 24.9977 150.91 22.4541ZM152.007 22.4541C152.007 24.4663 152.844 25.6873 154.279 25.6873C155.715 25.6873 156.54 24.4663 156.54 22.4541C156.54 20.4192 155.715 19.1982 154.279 19.1982C152.844 19.1982 152.007 20.4192 152.007 22.4541ZM158.749 22.4541C158.749 19.9217 160.06 18.2034 162.118 18.2034C164.164 18.2034 165.475 19.9217 165.475 22.4541C165.475 24.9977 164.22 26.6821 162.118 26.6821C160.004 26.6821 158.749 24.9977 158.749 22.4541ZM159.845 22.4541C159.845 24.4663 160.682 25.6873 162.118 25.6873C163.553 25.6873 164.379 24.4663 164.379 22.4541C164.379 20.4192 163.553 19.1982 162.118 19.1982C160.682 19.1982 159.845 20.4192 159.845 22.4541ZM166.587 22.4541C166.587 19.9217 167.899 18.2034 169.956 18.2034C172.002 18.2034 173.314 19.9217 173.314 22.4541C173.314 24.9977 172.059 26.6821 169.956 26.6821C167.842 26.6821 166.587 24.9977 166.587 22.4541ZM167.684 22.4541C167.684 24.4663 168.52 25.6873 169.956 25.6873C171.392 25.6873 172.217 24.4663 172.217 22.4541C172.217 20.4192 171.392 19.1982 169.956 19.1982C168.52 19.1982 167.684 20.4192 167.684 22.4541ZM179.292 26.5352H178.229V21.9001H177.144V21.007H178.229V19.2773H179.292V21.007H180.377V21.9001H179.292V26.5352ZM180.914 23.7654C180.914 22.0584 182.135 20.86 183.797 20.86C185.447 20.86 186.668 22.0584 186.668 23.7654C186.668 25.4725 185.447 26.6708 183.797 26.6708C182.135 26.6708 180.914 25.4725 180.914 23.7654ZM181.988 23.7654C181.988 24.9185 182.723 25.7212 183.797 25.7212C184.859 25.7212 185.605 24.9185 185.605 23.7654C185.605 22.6123 184.859 21.8097 183.797 21.8097C182.723 21.8097 181.988 22.6123 181.988 23.7654ZM190.404 29.011V28.1405H191.117C191.625 28.1405 192.032 28.0613 192.292 27.3604L192.484 26.8291L190.257 21.007H191.377L192.982 25.4612L194.621 21.007H195.718L193.106 27.7787C192.733 28.7283 192.179 29.124 191.331 29.124C190.981 29.124 190.687 29.0788 190.404 29.011ZM195.995 23.7654C195.995 22.0584 197.215 20.86 198.877 20.86C200.528 20.86 201.749 22.0584 201.749 23.7654C201.749 25.4725 200.528 26.6708 198.877 26.6708C197.215 26.6708 195.995 25.4725 195.995 23.7654ZM197.068 23.7654C197.068 24.9185 197.803 25.7212 198.877 25.7212C199.94 25.7212 200.686 24.9185 200.686 23.7654C200.686 22.6123 199.94 21.8097 198.877 21.8097C197.803 21.8097 197.068 22.6123 197.068 23.7654ZM206.614 21.007H207.665V26.5352H206.715L206.602 25.6986C206.286 26.2751 205.551 26.6708 204.737 26.6708C203.448 26.6708 202.725 25.8003 202.725 24.4437V21.007H203.787V24.0933C203.787 25.2803 204.296 25.7325 205.11 25.7325C206.082 25.7325 206.614 25.1107 206.614 23.9237V21.007ZM212.372 20.9618V21.934H211.897C210.891 21.934 210.27 22.5445 210.27 23.6072V26.5352H209.207V21.0183H210.202L210.27 21.8549C210.496 21.2783 211.05 20.894 211.807 20.894C211.999 20.894 212.157 20.9166 212.372 20.9618ZM216.098 23.7767C216.098 22.0471 217.195 20.8487 218.812 20.8487C220.202 20.8487 221.174 21.6401 221.367 22.8723H220.304C220.123 22.1714 219.558 21.7984 218.846 21.7984C217.839 21.7984 217.15 22.5671 217.15 23.7654C217.15 24.9525 217.794 25.7212 218.8 25.7212C219.558 25.7212 220.123 25.3255 220.315 24.6698H221.378C221.163 25.8682 220.134 26.6708 218.8 26.6708C217.172 26.6708 216.098 25.5177 216.098 23.7767ZM224.116 26.6708C222.929 26.6708 222.228 26.0038 222.228 24.9977C222.228 23.9802 222.985 23.3471 224.285 23.2454L226.026 23.1097V22.9515C226.026 22.0245 225.472 21.6966 224.726 21.6966C223.833 21.6966 223.324 22.0923 223.324 22.7593H222.397C222.397 21.6062 223.347 20.8487 224.771 20.8487C226.139 20.8487 227.066 21.5723 227.066 23.0645V26.5352H226.162L226.049 25.6421C225.766 26.2751 225.009 26.6708 224.116 26.6708ZM224.421 25.8456C225.427 25.8456 226.038 25.1899 226.038 24.1498V23.8559L224.624 23.9689C223.686 24.0594 223.302 24.4211 223.302 24.9638C223.302 25.5516 223.731 25.8456 224.421 25.8456ZM229.601 26.5352H228.538V21.007H229.488L229.589 21.7305C229.872 21.2105 230.46 20.8487 231.24 20.8487C232.099 20.8487 232.71 21.2783 232.992 21.9679C233.252 21.2783 233.919 20.8487 234.778 20.8487C236.045 20.8487 236.813 21.6401 236.813 22.9176V26.5352H235.773V23.1776C235.773 22.3071 235.287 21.8097 234.541 21.8097C233.738 21.8097 233.207 22.3749 233.207 23.2567V26.5352H232.156V23.1663C232.156 22.2958 231.681 21.821 230.935 21.821C230.132 21.821 229.601 22.3749 229.601 23.2567V26.5352ZM238.286 29.011V21.007H239.247L239.326 22.0019C239.699 21.2444 240.446 20.8487 241.327 20.8487C242.91 20.8487 243.894 22.0358 243.894 23.7315C243.894 25.416 242.967 26.6821 241.327 26.6821C240.446 26.6821 239.711 26.3091 239.349 25.6308V29.011H238.286ZM239.36 23.7767C239.36 24.9072 240.016 25.7212 241.101 25.7212C242.187 25.7212 242.831 24.9072 242.831 23.7767C242.831 22.6349 242.187 21.821 241.101 21.821C240.016 21.821 239.36 22.6236 239.36 23.7767ZM246.682 26.6708C245.495 26.6708 244.794 26.0038 244.794 24.9977C244.794 23.9802 245.551 23.3471 246.851 23.2454L248.592 23.1097V22.9515C248.592 22.0245 248.038 21.6966 247.292 21.6966C246.399 21.6966 245.89 22.0923 245.89 22.7593H244.963C244.963 21.6062 245.913 20.8487 247.337 20.8487C248.705 20.8487 249.632 21.5723 249.632 23.0645V26.5352H248.728L248.615 25.6421C248.332 26.2751 247.575 26.6708 246.682 26.6708ZM246.987 25.8456C247.993 25.8456 248.603 25.1899 248.603 24.1498V23.8559L247.19 23.9689C246.252 24.0594 245.868 24.4211 245.868 24.9638C245.868 25.5516 246.297 25.8456 246.987 25.8456ZM251.624 19.6956C251.239 19.6956 250.923 19.3791 250.923 18.9947C250.923 18.599 251.239 18.2938 251.624 18.2938C252.008 18.2938 252.325 18.599 252.325 18.9947C252.325 19.3791 252.008 19.6956 251.624 19.6956ZM251.104 26.5352V21.007H252.167V26.5352H251.104ZM253.359 23.6298C253.359 22.0697 254.365 20.8487 255.97 20.8487C256.863 20.8487 257.553 21.2557 257.903 21.9453L257.983 21.007H258.932V26.3091C258.932 28.05 257.858 29.1579 256.162 29.1579C254.659 29.1579 253.63 28.31 253.427 26.9082H254.489C254.625 27.7222 255.235 28.197 256.162 28.197C257.203 28.197 257.881 27.5187 257.881 26.4673V25.3594C257.519 26.0038 256.796 26.3882 255.925 26.3882C254.354 26.3882 253.359 25.1786 253.359 23.6298ZM254.421 23.6072C254.421 24.6472 255.066 25.4612 256.106 25.4612C257.18 25.4612 257.836 24.6924 257.836 23.6072C257.836 22.5445 257.203 21.7758 256.117 21.7758C255.055 21.7758 254.421 22.5897 254.421 23.6072ZM261.528 26.5352H260.466V21.007H261.427L261.54 21.8549C261.89 21.2218 262.591 20.8487 263.371 20.8487C264.83 20.8487 265.497 21.7418 265.497 23.155V26.5352H264.434V23.3924C264.434 22.2732 263.914 21.821 263.1 21.821C262.105 21.821 261.528 22.5332 261.528 23.6072V26.5352Z" fill="#101828"/>
</g>
<defs>
<filter id="filter0_dd_12259_8399" x="0.31" y="-2.38419e-07" width="342.38" height="63.8351" filterUnits="userSpaceOnUse" color-interpolation-filters="sRGB">
<feFlood flood-opacity="0" result="BackgroundImageFix"/>
<feColorMatrix in="SourceAlpha" type="matrix" values="0 0 0 0 0 0 0 0 0 0 0 0 0 0 0 0 0 0 127 0" result="hardAlpha"/>
<feMorphology radius="1.615" operator="erode" in="SourceAlpha" result="effect1_dropShadow_12259_8399"/>
<feOffset dy="3.23"/>
<feGaussianBlur stdDeviation="2.4225"/>
<feComposite in2="hardAlpha" operator="out"/>
<feColorMatrix type="matrix" values="0 0 0 0 0.0627451 0 0 0 0 0.0941176 0 0 0 0 0.156863 0 0 0 0.03 0"/>
<feBlend mode="normal" in2="BackgroundImageFix" result="effect1_dropShadow_12259_8399"/>
<feColorMatrix in="SourceAlpha" type="matrix" values="0 0 0 0 0 0 0 0 0 0 0 0 0 0 0 0 0 0 127 0" result="hardAlpha"/>
<feMorphology radius="3.23" operator="erode" in="SourceAlpha" result="effect2_dropShadow_12259_8399"/>
<feOffset dy="9.69"/>
<feGaussianBlur stdDeviation="6.46"/>
<feComposite in2="hardAlpha" operator="out"/>
<feColorMatrix type="matrix" values="0 0 0 0 0.0627451 0 0 0 0 0.0941176 0 0 0 0 0.156863 0 0 0 0.08 0"/>
<feBlend mode="normal" in2="effect1_dropShadow_12259_8399" result="effect2_dropShadow_12259_8399"/>
<feBlend mode="normal" in="SourceGraphic" in2="effect2_dropShadow_12259_8399" result="shape"/>
</filter>
</defs>
</svg>
