<svg width="383" height="286" viewBox="0 0 383 286" fill="none" xmlns="http://www.w3.org/2000/svg">
<g filter="url(#filter0_dd_12259_8354)">
<g clip-path="url(#clip0_12259_8354)">
<path d="M20 12C20 5.37258 25.3726 0 32 0H351C357.627 0 363 5.37258 363 12V260C363 266.627 357.627 272 351 272H32C25.3726 272 20 266.627 20 260V12Z" fill="white"/>
<mask id="mask0_12259_8354" style="mask-type:alpha" maskUnits="userSpaceOnUse" x="-108" y="-124" width="336" height="336">
<rect width="336" height="336" transform="translate(-108 -124)" fill="url(#paint0_radial_12259_8354)"/>
</mask>
<g mask="url(#mask0_12259_8354)">
<circle cx="60" cy="44" r="47.5" stroke="#EAECF0"/>
<circle cx="60" cy="44" r="47.5" stroke="#EAECF0"/>
<circle cx="60" cy="44" r="71.5" stroke="#EAECF0"/>
<circle cx="60" cy="44" r="95.5" stroke="#EAECF0"/>
<circle cx="60" cy="44" r="119.5" stroke="#EAECF0"/>
<circle cx="60" cy="44" r="143.5" stroke="#EAECF0"/>
<circle cx="60" cy="44" r="167.5" stroke="#EAECF0"/>
</g>
<path d="M36 44C36 30.7452 46.7452 20 60 20C73.2548 20 84 30.7452 84 44C84 57.2548 73.2548 68 60 68C46.7452 68 36 57.2548 36 44Z" fill="#DCFAE6"/>
<path d="M55.5 44L58.5 47L64.5 41M70 44C70 49.5228 65.5228 54 60 54C54.4772 54 50 49.5228 50 44C50 38.4772 54.4772 34 60 34C65.5228 34 70 38.4772 70 44Z" stroke="#079455" stroke-width="2" stroke-linecap="round" stroke-linejoin="round"/>
<path d="M35.856 89.328H38.448L41.364 94.26C41.49 94.476 41.526 94.728 41.544 95.052C41.544 95.16 41.58 95.304 41.76 95.304C41.94 95.304 41.976 95.16 41.976 95.052C41.994 94.728 42.03 94.476 42.156 94.26L45.072 89.328H47.664L42.984 97.032V102H40.536V97.032L35.856 89.328ZM51.5375 92.352C54.5075 92.352 56.2895 94.548 56.2895 97.248C56.2895 99.948 54.5075 102.144 51.5375 102.144C48.5675 102.144 46.7855 99.948 46.7855 97.248C46.7855 94.548 48.5675 92.352 51.5375 92.352ZM51.5375 100.056C53.1035 100.056 53.9855 98.796 53.9855 97.248C53.9855 95.7 53.1035 94.44 51.5375 94.44C49.9715 94.44 49.0895 95.7 49.0895 97.248C49.0895 98.796 49.9715 100.056 51.5375 100.056ZM60.8646 102.144C58.8126 102.144 57.4446 100.812 57.4446 98.112V92.496H59.7486V97.32C59.7486 99.462 60.3066 100.056 61.5126 100.056C62.8446 100.056 64.0686 98.562 64.0686 96.366V92.496H66.3726V102H64.0686V101.406C64.0686 100.83 64.1946 100.488 64.3566 100.11C64.4286 99.948 64.5366 99.696 64.3026 99.642C64.1586 99.606 64.1046 99.714 64.0326 99.858C63.5646 100.794 62.5206 102.144 60.8646 102.144ZM70.3683 94.53C70.4763 94.548 70.5663 94.404 70.5843 94.35C71.1603 93.036 71.6823 92.352 74.0043 92.352V94.692C71.3223 94.512 70.5483 95.466 70.5483 97.878V102H68.2443V92.496H70.5483V93.018C70.5483 93.432 70.4403 93.792 70.2783 94.116C70.2063 94.278 70.1523 94.494 70.3683 94.53ZM80.0542 89.328H82.6462L84.7882 98.724C84.8962 99.21 84.9322 99.804 84.9502 100.236C84.9502 100.344 84.9862 100.47 85.1662 100.47C85.3282 100.47 85.3822 100.362 85.3822 100.236C85.3822 99.804 85.4182 99.21 85.5082 98.724L87.2542 89.328H90.1342L91.8802 98.724C91.9702 99.21 92.0062 99.804 92.0062 100.236C92.0062 100.362 92.0602 100.47 92.2222 100.47C92.4022 100.47 92.4382 100.344 92.4382 100.236C92.4382 99.804 92.4922 99.21 92.6002 98.724L94.7422 89.328H97.3342L94.1662 102H90.4222L89.0182 93.81C88.9462 93.432 88.9102 92.874 88.9102 92.28C88.9102 92.172 88.8742 92.028 88.6942 92.028C88.5142 92.028 88.4782 92.172 88.4782 92.28C88.4782 92.874 88.4422 93.432 88.3702 93.81L86.9662 102H83.2222L80.0542 89.328ZM98.3381 91.344V89.04H100.642V91.344H98.3381ZM98.3381 102V92.496H100.642V102H98.3381ZM108.141 94.512H105.549V98.85C105.549 99.894 105.567 99.984 106.539 99.984H108.141V102H106.053C104.145 102 103.245 101.37 103.245 99.084V94.512H101.517V92.496H103.245V89.904H105.549V92.496H108.141V94.512ZM115.237 92.352C117.289 92.352 118.657 93.684 118.657 96.384V102H116.353V97.176C116.353 95.034 115.795 94.44 114.589 94.44C113.257 94.44 112.033 95.934 112.033 98.13V102H109.729V89.04H112.033V93.09C112.033 93.666 111.925 94.008 111.745 94.386C111.673 94.548 111.565 94.8 111.799 94.854C111.943 94.89 111.997 94.782 112.069 94.638C112.501 93.684 113.581 92.352 115.237 92.352ZM127.005 89.04H129.309V102H127.005V101.586C127.005 101.226 127.095 100.938 127.257 100.614C127.347 100.434 127.419 100.254 127.221 100.182C127.059 100.128 126.987 100.308 126.951 100.362C126.285 101.352 125.385 102.144 123.945 102.144C121.479 102.144 119.805 99.984 119.805 97.248C119.805 94.512 121.479 92.352 123.945 92.352C125.421 92.352 126.429 93.072 126.951 94.116C126.987 94.188 127.095 94.422 127.275 94.332C127.455 94.242 127.347 94.026 127.257 93.846C127.095 93.522 127.005 93.234 127.005 92.856V89.04ZM124.485 100.056C125.997 100.056 127.005 98.76 127.005 97.248C127.005 95.736 125.997 94.44 124.485 94.44C122.865 94.44 122.109 95.736 122.109 97.248C122.109 98.76 122.865 100.056 124.485 100.056ZM133.316 94.53C133.424 94.548 133.514 94.404 133.532 94.35C134.108 93.036 134.63 92.352 136.952 92.352V94.692C134.27 94.512 133.496 95.466 133.496 97.878V102H131.192V92.496H133.496V93.018C133.496 93.432 133.388 93.792 133.226 94.116C133.154 94.278 133.1 94.494 133.316 94.53ZM137.383 99.39C137.383 97.284 138.931 96.51 140.839 96.402C142.531 96.312 144.025 96.474 144.007 95.592C143.989 94.944 143.737 94.224 142.099 94.224C140.479 94.224 140.065 94.89 139.939 95.664H137.671C137.995 93.27 140.047 92.352 142.171 92.352C144.349 92.352 146.311 93.072 146.311 96.744V102H144.007V101.334C144.007 100.902 144.115 100.596 144.277 100.29C144.349 100.128 144.421 99.948 144.259 99.876C144.079 99.804 144.007 99.984 143.971 100.074C143.431 101.388 142.387 102.144 140.695 102.144C138.913 102.144 137.383 100.992 137.383 99.39ZM144.007 97.104C143.467 97.698 142.603 97.788 141.235 97.932C140.245 98.04 139.687 98.418 139.687 99.264C139.687 100.056 140.443 100.56 141.505 100.416C142.729 100.254 143.989 99.462 144.007 97.104ZM146.897 92.496H149.345L150.839 99.048C150.929 99.444 150.929 99.822 150.929 100.2C150.929 100.326 150.965 100.47 151.145 100.47C151.325 100.47 151.361 100.326 151.361 100.2C151.361 99.822 151.361 99.444 151.451 99.048L152.873 92.496H155.609L157.031 99.048C157.121 99.444 157.121 99.822 157.121 100.2C157.121 100.326 157.157 100.47 157.337 100.47C157.517 100.47 157.553 100.326 157.553 100.2C157.553 99.822 157.553 99.444 157.643 99.048L159.137 92.496H161.585L158.849 102H155.825L154.547 95.934C154.457 95.502 154.457 95.034 154.457 94.656C154.457 94.53 154.421 94.386 154.241 94.386C154.061 94.386 154.025 94.53 154.025 94.656C154.025 95.034 154.025 95.502 153.935 95.934L152.657 102H149.633L146.897 92.496ZM161.729 99.39C161.729 97.284 163.277 96.51 165.185 96.402C166.877 96.312 168.371 96.474 168.353 95.592C168.335 94.944 168.083 94.224 166.445 94.224C164.825 94.224 164.411 94.89 164.285 95.664H162.017C162.341 93.27 164.393 92.352 166.517 92.352C168.695 92.352 170.657 93.072 170.657 96.744V102H168.353V101.334C168.353 100.902 168.461 100.596 168.623 100.29C168.695 100.128 168.767 99.948 168.605 99.876C168.425 99.804 168.353 99.984 168.317 100.074C167.777 101.388 166.733 102.144 165.041 102.144C163.259 102.144 161.729 100.992 161.729 99.39ZM168.353 97.104C167.813 97.698 166.949 97.788 165.581 97.932C164.591 98.04 164.033 98.418 164.033 99.264C164.033 100.056 164.789 100.56 165.851 100.416C167.075 100.254 168.335 99.462 168.353 97.104ZM172.535 89.04H174.839V102H172.535V89.04ZM182.326 91.344V89.04H184.63V91.344H182.326ZM182.326 102V92.496H184.63V102H182.326ZM185.934 98.796H188.202C188.22 99.498 188.634 100.344 190.308 100.344C191.784 100.344 192.27 99.84 192.27 99.21C192.27 98.508 191.334 98.4 189.516 98.184C186.6 97.824 186.222 96.312 186.222 95.25C186.222 93.702 187.59 92.352 190.29 92.352C192.792 92.352 194.16 93.684 194.286 95.412H192.018C191.964 94.818 191.568 94.152 190.236 94.152C188.922 94.152 188.526 94.584 188.526 95.124C188.526 95.574 188.724 95.952 190.578 96.132C192.9 96.366 194.574 97.122 194.574 99.03C194.574 101.01 193.044 102.144 190.236 102.144C187.482 102.144 186.024 100.83 185.934 98.796ZM203.791 89.04V92.856C203.791 93.234 203.701 93.522 203.539 93.846C203.467 94.026 203.341 94.242 203.521 94.332C203.701 94.422 203.809 94.188 203.845 94.116C204.421 93.108 205.375 92.352 206.851 92.352C209.317 92.352 210.991 94.512 210.991 97.248C210.991 99.984 209.317 102.144 206.851 102.144C205.411 102.144 204.421 101.406 203.845 100.362C203.809 100.308 203.737 100.128 203.575 100.182C203.377 100.254 203.449 100.434 203.539 100.614C203.701 100.938 203.791 101.226 203.791 101.586V102H201.487V89.04H203.791ZM206.311 100.056C207.931 100.056 208.687 98.76 208.687 97.248C208.687 95.736 207.931 94.44 206.311 94.44C204.799 94.44 203.791 95.736 203.791 97.248C203.791 98.76 204.799 100.056 206.311 100.056ZM221.218 97.122C221.218 97.374 221.2 97.554 221.164 97.824H214.252C214.414 99.264 215.35 100.128 216.79 100.128C217.888 100.128 218.446 99.534 218.716 98.688H221.056C220.642 100.65 219.31 102.144 216.772 102.144C213.694 102.144 212.002 100.074 212.002 97.248C212.002 94.278 213.838 92.352 216.736 92.352C218.932 92.352 221.218 93.666 221.218 97.122ZM214.342 96.24H218.914C218.824 95.088 218.14 94.224 216.808 94.224C215.242 94.224 214.576 95.106 214.342 96.24ZM222.369 91.344V89.04H224.673V91.344H222.369ZM222.369 102V92.496H224.673V102H222.369ZM232.061 92.352C234.113 92.352 235.481 93.684 235.481 96.384V102H233.177V97.176C233.177 95.034 232.619 94.44 231.413 94.44C230.081 94.44 228.857 95.934 228.857 98.13V102H226.553V92.496H228.857V93.09C228.857 93.666 228.749 94.008 228.569 94.386C228.497 94.548 228.389 94.8 228.623 94.854C228.767 94.89 228.821 94.782 228.893 94.638C229.325 93.684 230.405 92.352 232.061 92.352ZM236.629 97.032C236.629 94.476 238.303 92.352 240.769 92.352C242.245 92.352 243.163 93.09 243.775 94.08C243.793 94.116 243.901 94.35 244.063 94.278C244.243 94.206 244.117 93.972 244.027 93.792C243.883 93.522 243.829 93.27 243.829 92.928V92.496H246.133V100.992C246.133 104.034 244.351 105.6 241.435 105.6C238.447 105.6 237.079 103.998 236.917 102.216H239.185C239.293 103.08 239.869 103.728 241.399 103.728C243.019 103.728 243.829 102.828 243.829 101.082C243.829 100.758 243.883 100.506 244.027 100.236C244.117 100.056 244.243 99.876 244.063 99.786C243.901 99.714 243.811 99.876 243.775 99.948C243.163 100.992 242.209 101.712 240.769 101.712C238.303 101.712 236.629 99.588 236.629 97.032ZM241.309 99.624C242.821 99.624 243.829 98.436 243.829 97.032C243.829 95.628 242.821 94.44 241.309 94.44C239.689 94.44 238.933 95.628 238.933 97.032C238.933 98.436 239.689 99.624 241.309 99.624ZM255.927 92.496V92.856C255.927 93.234 255.837 93.522 255.675 93.846C255.603 94.026 255.477 94.242 255.657 94.332C255.837 94.422 255.945 94.188 255.981 94.116C256.557 93.108 257.511 92.352 258.987 92.352C261.453 92.352 263.127 94.512 263.127 97.248C263.127 99.984 261.453 102.144 258.987 102.144C257.547 102.144 256.557 101.406 255.981 100.362C255.945 100.308 255.873 100.128 255.711 100.182C255.513 100.254 255.585 100.434 255.675 100.614C255.837 100.938 255.927 101.226 255.927 101.586V105.456H253.623V92.496H255.927ZM258.447 100.056C260.067 100.056 260.823 98.76 260.823 97.248C260.823 95.736 260.067 94.44 258.447 94.44C256.935 94.44 255.927 95.736 255.927 97.248C255.927 98.76 256.935 100.056 258.447 100.056ZM266.558 94.53C266.666 94.548 266.756 94.404 266.774 94.35C267.35 93.036 267.872 92.352 270.194 92.352V94.692C267.512 94.512 266.738 95.466 266.738 97.878V102H264.434V92.496H266.738V93.018C266.738 93.432 266.63 93.792 266.468 94.116C266.396 94.278 266.342 94.494 266.558 94.53ZM275.237 92.352C278.207 92.352 279.989 94.548 279.989 97.248C279.989 99.948 278.207 102.144 275.237 102.144C272.267 102.144 270.485 99.948 270.485 97.248C270.485 94.548 272.267 92.352 275.237 92.352ZM275.237 100.056C276.803 100.056 277.685 98.796 277.685 97.248C277.685 95.7 276.803 94.44 275.237 94.44C273.671 94.44 272.789 95.7 272.789 97.248C272.789 98.796 273.671 100.056 275.237 100.056ZM280.926 97.248C280.926 94.422 282.78 92.352 285.732 92.352C288.396 92.352 289.98 94.152 290.142 96.096H287.874C287.73 95.196 287.028 94.44 285.732 94.44C284.148 94.44 283.23 95.592 283.23 97.248C283.23 98.904 284.148 100.056 285.732 100.056C287.028 100.056 287.73 99.3 287.874 98.4H290.142C289.98 100.344 288.414 102.144 285.732 102.144C282.834 102.144 280.926 100.074 280.926 97.248ZM300.285 97.122C300.285 97.374 300.267 97.554 300.231 97.824H293.319C293.481 99.264 294.417 100.128 295.857 100.128C296.955 100.128 297.513 99.534 297.783 98.688H300.123C299.709 100.65 298.377 102.144 295.839 102.144C292.761 102.144 291.069 100.074 291.069 97.248C291.069 94.278 292.905 92.352 295.803 92.352C297.999 92.352 300.285 93.666 300.285 97.122ZM293.409 96.24H297.981C297.891 95.088 297.207 94.224 295.875 94.224C294.309 94.224 293.643 95.106 293.409 96.24ZM301.141 98.796H303.409C303.427 99.498 303.841 100.344 305.515 100.344C306.991 100.344 307.477 99.84 307.477 99.21C307.477 98.508 306.541 98.4 304.723 98.184C301.807 97.824 301.429 96.312 301.429 95.25C301.429 93.702 302.797 92.352 305.497 92.352C307.999 92.352 309.367 93.684 309.493 95.412H307.225C307.171 94.818 306.775 94.152 305.443 94.152C304.129 94.152 303.733 94.584 303.733 95.124C303.733 95.574 303.931 95.952 305.785 96.132C308.107 96.366 309.781 97.122 309.781 99.03C309.781 101.01 308.251 102.144 305.443 102.144C302.689 102.144 301.231 100.83 301.141 98.796ZM310.651 98.796H312.919C312.937 99.498 313.351 100.344 315.025 100.344C316.501 100.344 316.987 99.84 316.987 99.21C316.987 98.508 316.051 98.4 314.233 98.184C311.317 97.824 310.939 96.312 310.939 95.25C310.939 93.702 312.307 92.352 315.007 92.352C317.509 92.352 318.877 93.684 319.003 95.412H316.735C316.681 94.818 316.285 94.152 314.953 94.152C313.639 94.152 313.243 94.584 313.243 95.124C313.243 95.574 313.441 95.952 315.295 96.132C317.617 96.366 319.291 97.122 319.291 99.03C319.291 101.01 317.761 102.144 314.953 102.144C312.199 102.144 310.741 100.83 310.651 98.796ZM329.377 97.122C329.377 97.374 329.359 97.554 329.323 97.824H322.411C322.573 99.264 323.509 100.128 324.949 100.128C326.047 100.128 326.605 99.534 326.875 98.688H329.215C328.801 100.65 327.469 102.144 324.931 102.144C321.853 102.144 320.161 100.074 320.161 97.248C320.161 94.278 321.997 92.352 324.895 92.352C327.091 92.352 329.377 93.666 329.377 97.122ZM322.501 96.24H327.073C326.983 95.088 326.299 94.224 324.967 94.224C323.401 94.224 322.735 95.106 322.501 96.24ZM337.573 89.04H339.877V102H337.573V101.586C337.573 101.226 337.663 100.938 337.825 100.614C337.915 100.434 337.987 100.254 337.789 100.182C337.627 100.128 337.555 100.308 337.519 100.362C336.853 101.352 335.953 102.144 334.513 102.144C332.047 102.144 330.373 99.984 330.373 97.248C330.373 94.512 332.047 92.352 334.513 92.352C335.989 92.352 336.997 93.072 337.519 94.116C337.555 94.188 337.663 94.422 337.843 94.332C338.023 94.242 337.915 94.026 337.825 93.846C337.663 93.522 337.573 93.234 337.573 92.856V89.04ZM335.053 100.056C336.565 100.056 337.573 98.76 337.573 97.248C337.573 95.736 336.565 94.44 335.053 94.44C333.433 94.44 332.677 95.736 332.677 97.248C332.677 98.76 333.433 100.056 335.053 100.056Z" fill="#101828"/>
<path d="M36 118.144H37.68L40.088 122.246C40.172 122.386 40.228 122.582 40.256 122.764C40.27 122.848 40.284 122.904 40.368 122.904C40.452 122.904 40.466 122.848 40.48 122.764C40.508 122.582 40.564 122.386 40.648 122.246L43.056 118.144H44.736L41.096 124.024V128H39.64V124.024L36 118.144ZM47.754 120.72C49.924 120.72 51.226 122.386 51.226 124.416C51.226 126.446 49.924 128.112 47.754 128.112C45.584 128.112 44.282 126.446 44.282 124.416C44.282 122.386 45.584 120.72 47.754 120.72ZM47.754 126.88C49.098 126.88 49.882 125.774 49.882 124.416C49.882 123.058 49.098 121.952 47.754 121.952C46.41 121.952 45.626 123.058 45.626 124.416C45.626 125.774 46.41 126.88 47.754 126.88ZM55 128.112C53.348 128.112 52.34 127.188 52.34 125.088V120.832H53.684V124.808C53.684 126.474 54.398 126.936 55.336 126.936C56.372 126.936 57.492 125.886 57.492 124.178V120.832H58.836V128H57.492V127.524C57.492 127.23 57.52 126.936 57.646 126.572C57.688 126.446 57.744 126.32 57.632 126.278C57.548 126.25 57.506 126.348 57.478 126.404C57.142 127.076 56.288 128.112 55 128.112ZM61.753 122.498C61.823 122.512 61.865 122.442 61.893 122.372C62.341 121.224 62.747 120.72 64.553 120.72V122.092C62.467 121.952 61.865 122.694 61.865 124.57V128H60.521V120.832H61.865V121.308C61.865 121.602 61.837 121.826 61.711 122.246C61.683 122.358 61.641 122.47 61.753 122.498ZM73.1224 119.096C72.3384 119.096 72.1704 119.348 72.1704 120.16V120.832H74.1864V122.008H72.1704V128H70.8264V122.008H69.7064V120.832H70.8264V120.02C70.8264 118.466 71.5264 117.92 73.0104 117.92H74.1864V119.096H73.1224ZM77.75 128.112C76.098 128.112 75.09 127.188 75.09 125.088V120.832H76.434V124.808C76.434 126.474 77.148 126.936 78.086 126.936C79.122 126.936 80.242 125.886 80.242 124.178V120.832H81.586V128H80.242V127.524C80.242 127.23 80.27 126.936 80.396 126.572C80.438 126.446 80.494 126.32 80.382 126.278C80.298 126.25 80.256 126.348 80.228 126.404C79.892 127.076 79.038 128.112 77.75 128.112ZM87.107 120.72C88.759 120.72 89.767 121.644 89.767 123.744V128H88.423V124.024C88.423 122.358 87.709 121.896 86.771 121.896C85.735 121.896 84.615 122.946 84.615 124.654V128H83.271V120.832H84.615V121.308C84.615 121.602 84.587 121.896 84.461 122.26C84.419 122.386 84.363 122.526 84.475 122.554C84.559 122.582 84.601 122.484 84.629 122.428C84.909 121.728 85.819 120.72 87.107 120.72ZM96.4894 117.92H97.8334V128H96.4894V127.398C96.4894 127.146 96.5174 126.95 96.6294 126.642C96.6714 126.53 96.7414 126.404 96.6014 126.362C96.5174 126.334 96.4754 126.446 96.4614 126.488C96.1254 127.496 95.1734 128.112 94.0534 128.112C92.1914 128.112 90.8894 126.544 90.8894 124.416C90.8894 122.288 92.1914 120.72 94.0534 120.72C95.2014 120.72 96.1394 121.35 96.4614 122.316C96.4754 122.358 96.5174 122.498 96.6294 122.456C96.7554 122.414 96.6714 122.274 96.6294 122.162C96.5174 121.868 96.4894 121.658 96.4894 121.392V117.92ZM94.3334 126.88C95.6074 126.88 96.4894 125.746 96.4894 124.416C96.4894 123.086 95.6074 121.952 94.3334 121.952C92.9334 121.952 92.2334 123.086 92.2334 124.416C92.2334 125.746 92.9334 126.88 94.3334 126.88ZM99.0652 125.508H100.381C100.395 126.054 100.843 126.936 102.243 126.936C103.615 126.936 103.993 126.39 103.993 125.928C103.993 125.284 103.391 125.088 101.753 124.92C99.8772 124.724 99.2892 123.87 99.2892 122.932C99.2892 121.854 100.269 120.72 102.229 120.72C104.035 120.72 105.015 121.756 105.113 123.1H103.797C103.755 122.638 103.447 121.896 102.187 121.896C101.053 121.896 100.633 122.358 100.633 122.834C100.633 123.296 100.899 123.604 102.453 123.772C104.385 123.982 105.337 124.542 105.337 125.718C105.337 127.174 104.147 128.112 102.187 128.112C100.241 128.112 99.1352 127.09 99.0652 125.508ZM110.714 125.998C110.714 124.36 111.918 123.856 113.29 123.758C114.578 123.66 115.88 123.814 115.866 123.072C115.852 122.484 115.516 121.896 114.046 121.896C112.786 121.896 112.352 122.372 112.254 123.072H110.938C111.19 121.434 112.45 120.72 114.102 120.72C115.712 120.72 117.21 121.28 117.21 123.912V128H115.866V127.314C115.866 127.048 115.894 126.838 116.02 126.474C116.048 126.348 116.104 126.236 116.006 126.194C115.894 126.152 115.866 126.264 115.838 126.334C115.432 127.398 114.48 128.112 113.178 128.112C111.82 128.112 110.714 127.216 110.714 125.998ZM115.866 124.136C115.432 124.668 114.466 124.682 113.374 124.836C112.506 124.962 112.058 125.27 112.058 125.928C112.058 126.502 112.534 127.034 113.696 126.88C114.788 126.74 115.852 125.942 115.866 124.136ZM120.009 122.498C120.079 122.512 120.121 122.442 120.149 122.372C120.597 121.224 121.003 120.72 122.809 120.72V122.092C120.723 121.952 120.121 122.694 120.121 124.57V128H118.777V120.832H120.121V121.308C120.121 121.602 120.093 121.826 119.967 122.246C119.939 122.358 119.897 122.47 120.009 122.498ZM129.752 124.318C129.752 124.514 129.738 124.654 129.71 124.808H124.362C124.46 125.956 125.244 126.88 126.546 126.88C127.512 126.88 127.988 126.404 128.24 125.578H129.626C129.332 126.908 128.352 128.112 126.518 128.112C124.264 128.112 123.032 126.446 123.032 124.416C123.032 122.26 124.432 120.72 126.49 120.72C128.086 120.72 129.752 121.77 129.752 124.318ZM124.432 123.688H128.408C128.324 122.638 127.652 121.896 126.56 121.896C125.216 121.896 124.628 122.722 124.432 123.688ZM138.604 120.72C140.774 120.72 142.076 122.386 142.076 124.416C142.076 126.446 140.774 128.112 138.604 128.112C136.434 128.112 135.132 126.446 135.132 124.416C135.132 122.386 136.434 120.72 138.604 120.72ZM138.604 126.88C139.948 126.88 140.732 125.774 140.732 124.416C140.732 123.058 139.948 121.952 138.604 121.952C137.26 121.952 136.476 123.058 136.476 124.416C136.476 125.774 137.26 126.88 138.604 126.88ZM147.031 120.72C148.683 120.72 149.691 121.644 149.691 123.744V128H148.347V124.024C148.347 122.358 147.633 121.896 146.695 121.896C145.659 121.896 144.539 122.946 144.539 124.654V128H143.195V120.832H144.539V121.308C144.539 121.602 144.511 121.896 144.385 122.26C144.343 122.386 144.287 122.526 144.399 122.554C144.483 122.582 144.525 122.484 144.553 122.428C144.833 121.728 145.743 120.72 147.031 120.72ZM155.69 119.488V117.92H157.146V119.488H155.69ZM155.746 128V120.832H157.09V128H155.746ZM162.69 122.008H160.674V125.76C160.674 126.572 160.842 126.824 161.626 126.824H162.69V128H161.514C160.03 128 159.33 127.454 159.33 125.9V122.008H157.986V120.832H159.33V118.816H160.674V120.832H162.69V122.008ZM163.815 125.508H165.131C165.145 126.054 165.593 126.936 166.993 126.936C168.365 126.936 168.743 126.39 168.743 125.928C168.743 125.284 168.141 125.088 166.503 124.92C164.627 124.724 164.039 123.87 164.039 122.932C164.039 121.854 165.019 120.72 166.979 120.72C168.785 120.72 169.765 121.756 169.863 123.1H168.547C168.505 122.638 168.197 121.896 166.937 121.896C165.803 121.896 165.383 122.358 165.383 122.834C165.383 123.296 165.649 123.604 167.203 123.772C169.135 123.982 170.087 124.542 170.087 125.718C170.087 127.174 168.897 128.112 166.937 128.112C164.991 128.112 163.885 127.09 163.815 125.508ZM175.016 120.832H176.472L177.942 126.194C178.012 126.474 178.04 126.74 178.04 127.02C178.04 127.104 178.054 127.188 178.152 127.188C178.25 127.188 178.264 127.104 178.264 127.02C178.264 126.74 178.292 126.474 178.362 126.194L179.72 120.832H181.288L182.646 126.194C182.716 126.474 182.744 126.74 182.744 127.02C182.744 127.104 182.758 127.188 182.856 127.188C182.954 127.188 182.968 127.104 182.968 127.02C182.968 126.74 182.996 126.474 183.066 126.194L184.536 120.832H185.992L183.808 128H182.016L180.686 122.904C180.644 122.694 180.616 122.428 180.616 122.148C180.616 122.064 180.616 121.966 180.504 121.966C180.392 121.966 180.392 122.064 180.392 122.148C180.392 122.428 180.364 122.694 180.322 122.904L178.992 128H177.2L175.016 120.832ZM186.333 125.998C186.333 124.36 187.537 123.856 188.909 123.758C190.197 123.66 191.499 123.814 191.485 123.072C191.471 122.484 191.135 121.896 189.665 121.896C188.405 121.896 187.971 122.372 187.873 123.072H186.557C186.809 121.434 188.069 120.72 189.721 120.72C191.331 120.72 192.829 121.28 192.829 123.912V128H191.485V127.314C191.485 127.048 191.513 126.838 191.639 126.474C191.667 126.348 191.723 126.236 191.625 126.194C191.513 126.152 191.485 126.264 191.457 126.334C191.051 127.398 190.099 128.112 188.797 128.112C187.439 128.112 186.333 127.216 186.333 125.998ZM191.485 124.136C191.051 124.668 190.085 124.682 188.993 124.836C188.125 124.962 187.677 125.27 187.677 125.928C187.677 126.502 188.153 127.034 189.315 126.88C190.407 126.74 191.471 125.942 191.485 124.136ZM193.5 120.832H194.956L196.888 126.124C196.986 126.376 197 126.642 197 126.88C197 126.964 197 127.062 197.112 127.062C197.224 127.062 197.224 126.964 197.224 126.88C197.224 126.642 197.266 126.376 197.35 126.124L199.212 120.832H200.668L197.56 128.854C197.056 130.17 196.356 130.688 195.068 130.688H194.144V129.512H194.788C195.852 129.512 196.034 129.274 196.244 128.756L196.44 128.28L193.5 120.832ZM210.076 122.008H208.06V125.76C208.06 126.572 208.228 126.824 209.012 126.824H210.076V128H208.9C207.416 128 206.716 127.454 206.716 125.9V122.008H205.372V120.832H206.716V118.816H208.06V120.832H210.076V122.008ZM214.223 120.72C216.393 120.72 217.695 122.386 217.695 124.416C217.695 126.446 216.393 128.112 214.223 128.112C212.053 128.112 210.751 126.446 210.751 124.416C210.751 122.386 212.053 120.72 214.223 120.72ZM214.223 126.88C215.567 126.88 216.351 125.774 216.351 124.416C216.351 123.058 215.567 121.952 214.223 121.952C212.879 121.952 212.095 123.058 212.095 124.416C212.095 125.774 212.879 126.88 214.223 126.88ZM222.621 120.832H224.077L226.009 126.124C226.107 126.376 226.121 126.642 226.121 126.88C226.121 126.964 226.121 127.062 226.233 127.062C226.345 127.062 226.345 126.964 226.345 126.88C226.345 126.642 226.387 126.376 226.471 126.124L228.333 120.832H229.789L226.681 128.854C226.177 130.17 225.477 130.688 224.189 130.688H223.265V129.512H223.909C224.973 129.512 225.155 129.274 225.365 128.756L225.561 128.28L222.621 120.832ZM233.486 120.72C235.656 120.72 236.958 122.386 236.958 124.416C236.958 126.446 235.656 128.112 233.486 128.112C231.316 128.112 230.014 126.446 230.014 124.416C230.014 122.386 231.316 120.72 233.486 120.72ZM233.486 126.88C234.83 126.88 235.614 125.774 235.614 124.416C235.614 123.058 234.83 121.952 233.486 121.952C232.142 121.952 231.358 123.058 231.358 124.416C231.358 125.774 232.142 126.88 233.486 126.88ZM240.732 128.112C239.08 128.112 238.072 127.188 238.072 125.088V120.832H239.416V124.808C239.416 126.474 240.13 126.936 241.068 126.936C242.104 126.936 243.224 125.886 243.224 124.178V120.832H244.568V128H243.224V127.524C243.224 127.23 243.252 126.936 243.378 126.572C243.42 126.446 243.476 126.32 243.364 126.278C243.28 126.25 243.238 126.348 243.21 126.404C242.874 127.076 242.02 128.112 240.732 128.112ZM247.485 122.498C247.555 122.512 247.597 122.442 247.625 122.372C248.073 121.224 248.479 120.72 250.285 120.72V122.092C248.199 121.952 247.597 122.694 247.597 124.57V128H246.253V120.832H247.597V121.308C247.597 121.602 247.569 121.826 247.443 122.246C247.415 122.358 247.373 122.47 247.485 122.498ZM257.455 117.92V121.392C257.455 121.658 257.413 121.868 257.315 122.162C257.273 122.274 257.189 122.414 257.315 122.456C257.427 122.498 257.469 122.358 257.483 122.316C257.903 121.392 258.743 120.72 259.891 120.72C261.753 120.72 263.055 122.288 263.055 124.416C263.055 126.544 261.753 128.112 259.891 128.112C258.771 128.112 257.917 127.454 257.483 126.488C257.469 126.446 257.427 126.334 257.343 126.362C257.203 126.404 257.273 126.53 257.315 126.642C257.413 126.95 257.455 127.146 257.455 127.398V128H256.111V117.92H257.455ZM259.611 126.88C261.011 126.88 261.711 125.746 261.711 124.416C261.711 123.086 261.011 121.952 259.611 121.952C258.337 121.952 257.455 123.086 257.455 124.416C257.455 125.746 258.337 126.88 259.611 126.88ZM263.948 125.998C263.948 124.36 265.152 123.856 266.524 123.758C267.812 123.66 269.114 123.814 269.1 123.072C269.086 122.484 268.75 121.896 267.28 121.896C266.02 121.896 265.586 122.372 265.488 123.072H264.172C264.424 121.434 265.684 120.72 267.336 120.72C268.946 120.72 270.444 121.28 270.444 123.912V128H269.1V127.314C269.1 127.048 269.128 126.838 269.254 126.474C269.282 126.348 269.338 126.236 269.24 126.194C269.128 126.152 269.1 126.264 269.072 126.334C268.666 127.398 267.714 128.112 266.412 128.112C265.054 128.112 263.948 127.216 263.948 125.998ZM269.1 124.136C268.666 124.668 267.7 124.682 266.608 124.836C265.74 124.962 265.292 125.27 265.292 125.928C265.292 126.502 265.768 127.034 266.93 126.88C268.022 126.74 269.086 125.942 269.1 124.136ZM275.847 120.72C277.499 120.72 278.507 121.644 278.507 123.744V128H277.163V124.024C277.163 122.358 276.449 121.896 275.511 121.896C274.475 121.896 273.355 122.946 273.355 124.654V128H272.011V120.832H273.355V121.308C273.355 121.602 273.327 121.896 273.201 122.26C273.159 122.386 273.103 122.526 273.215 122.554C273.299 122.582 273.341 122.484 273.369 122.428C273.649 121.728 274.559 120.72 275.847 120.72ZM286.24 128H284.616L282.068 124.752L281.312 125.508V128H279.968V117.92H281.312V123.044C281.312 123.534 281.228 123.772 281.018 124.066C280.976 124.136 280.892 124.234 280.976 124.29C281.06 124.346 281.116 124.248 281.172 124.192L284.308 120.832H286.016L282.908 123.926L286.24 128ZM291.169 125.998C291.169 124.36 292.373 123.856 293.745 123.758C295.033 123.66 296.335 123.814 296.321 123.072C296.307 122.484 295.971 121.896 294.501 121.896C293.241 121.896 292.807 122.372 292.709 123.072H291.393C291.645 121.434 292.905 120.72 294.557 120.72C296.167 120.72 297.665 121.28 297.665 123.912V128H296.321V127.314C296.321 127.048 296.349 126.838 296.475 126.474C296.503 126.348 296.559 126.236 296.461 126.194C296.349 126.152 296.321 126.264 296.293 126.334C295.887 127.398 294.935 128.112 293.633 128.112C292.275 128.112 291.169 127.216 291.169 125.998ZM296.321 124.136C295.887 124.668 294.921 124.682 293.829 124.836C292.961 124.962 292.513 125.27 292.513 125.928C292.513 126.502 292.989 127.034 294.151 126.88C295.243 126.74 296.307 125.942 296.321 124.136ZM298.893 124.416C298.893 122.386 300.167 120.72 302.407 120.72C304.367 120.72 305.487 122.05 305.613 123.52H304.297C304.171 122.708 303.555 121.952 302.421 121.952C301.049 121.952 300.237 123.086 300.237 124.416C300.237 125.746 301.049 126.88 302.421 126.88C303.555 126.88 304.171 126.124 304.297 125.312H305.613C305.487 126.782 304.381 128.112 302.407 128.112C300.209 128.112 298.893 126.446 298.893 124.416ZM306.509 124.416C306.509 122.386 307.783 120.72 310.023 120.72C311.983 120.72 313.103 122.05 313.229 123.52H311.913C311.787 122.708 311.171 121.952 310.037 121.952C308.665 121.952 307.853 123.086 307.853 124.416C307.853 125.746 308.665 126.88 310.037 126.88C311.171 126.88 311.787 126.124 311.913 125.312H313.229C313.103 126.782 311.997 128.112 310.023 128.112C307.825 128.112 306.509 126.446 306.509 124.416ZM317.596 120.72C319.766 120.72 321.068 122.386 321.068 124.416C321.068 126.446 319.766 128.112 317.596 128.112C315.426 128.112 314.124 126.446 314.124 124.416C314.124 122.386 315.426 120.72 317.596 120.72ZM317.596 126.88C318.94 126.88 319.724 125.774 319.724 124.416C319.724 123.058 318.94 121.952 317.596 121.952C316.252 121.952 315.468 123.058 315.468 124.416C315.468 125.774 316.252 126.88 317.596 126.88ZM324.842 128.112C323.19 128.112 322.182 127.188 322.182 125.088V120.832H323.526V124.808C323.526 126.474 324.24 126.936 325.178 126.936C326.214 126.936 327.334 125.886 327.334 124.178V120.832H328.678V128H327.334V127.524C327.334 127.23 327.362 126.936 327.488 126.572C327.53 126.446 327.586 126.32 327.474 126.278C327.39 126.25 327.348 126.348 327.32 126.404C326.984 127.076 326.13 128.112 324.842 128.112ZM334.199 120.72C335.851 120.72 336.859 121.644 336.859 123.744V128H335.515V124.024C335.515 122.358 334.801 121.896 333.863 121.896C332.827 121.896 331.707 122.946 331.707 124.654V128H330.363V120.832H331.707V121.308C331.707 121.602 331.679 121.896 331.553 122.26C331.511 122.386 331.455 122.526 331.567 122.554C331.651 122.582 331.693 122.484 331.721 122.428C332.001 121.728 332.911 120.72 334.199 120.72ZM342.352 122.008H340.336V125.76C340.336 126.572 340.504 126.824 341.288 126.824H342.352V128H341.176C339.692 128 338.992 127.454 338.992 125.9V122.008H337.648V120.832H338.992V118.816H340.336V120.832H342.352V122.008Z" fill="#475467"/>
<path d="M335 28L323 40M323 28L335 40" stroke="#98A2B3" stroke-width="2" stroke-linecap="round" stroke-linejoin="round"/>
<g filter="url(#filter1_d_12259_8354)">
<path d="M36 164C36 159.582 39.5817 156 44 156H339C343.418 156 347 159.582 347 164V192C347 196.418 343.418 200 339 200H44C39.5817 200 36 196.418 36 192V164Z" fill="#00B964"/>
<path d="M102.608 176.29H100.483C100.422 175.941 100.311 175.633 100.148 175.364C99.9848 175.091 99.7822 174.86 99.5398 174.67C99.2973 174.481 99.0208 174.339 98.7102 174.244C98.4034 174.146 98.072 174.097 97.7159 174.097C97.0833 174.097 96.5227 174.256 96.0341 174.574C95.5455 174.888 95.1629 175.35 94.8864 175.96C94.6098 176.566 94.4716 177.307 94.4716 178.182C94.4716 179.072 94.6098 179.822 94.8864 180.432C95.1667 181.038 95.5492 181.496 96.0341 181.807C96.5227 182.114 97.0814 182.267 97.7102 182.267C98.0587 182.267 98.3845 182.222 98.6875 182.131C98.9943 182.036 99.2689 181.898 99.5114 181.716C99.7576 181.534 99.964 181.311 100.131 181.045C100.301 180.78 100.419 180.477 100.483 180.136L102.608 180.148C102.528 180.701 102.356 181.22 102.091 181.705C101.83 182.189 101.487 182.617 101.062 182.989C100.638 183.356 100.142 183.644 99.5739 183.852C99.0057 184.057 98.375 184.159 97.6818 184.159C96.6591 184.159 95.7462 183.922 94.9432 183.449C94.1402 182.975 93.5076 182.292 93.0455 181.398C92.5833 180.504 92.3523 179.432 92.3523 178.182C92.3523 176.928 92.5852 175.856 93.0511 174.966C93.517 174.072 94.1515 173.388 94.9545 172.915C95.7576 172.441 96.6667 172.205 97.6818 172.205C98.3295 172.205 98.9318 172.295 99.4886 172.477C100.045 172.659 100.542 172.926 100.977 173.278C101.413 173.627 101.771 174.055 102.051 174.562C102.335 175.066 102.521 175.642 102.608 176.29ZM104.447 184V175.273H106.442V176.727H106.533C106.692 176.223 106.964 175.835 107.351 175.562C107.741 175.286 108.186 175.148 108.686 175.148C108.8 175.148 108.927 175.153 109.067 175.165C109.211 175.172 109.33 175.186 109.425 175.205V177.097C109.338 177.066 109.199 177.04 109.01 177.017C108.824 176.991 108.644 176.977 108.47 176.977C108.095 176.977 107.758 177.059 107.459 177.222C107.163 177.381 106.93 177.602 106.76 177.886C106.589 178.17 106.504 178.498 106.504 178.869V184H104.447ZM114.295 184.17C113.42 184.17 112.665 183.989 112.028 183.625C111.396 183.258 110.909 182.739 110.568 182.068C110.227 181.394 110.057 180.6 110.057 179.688C110.057 178.79 110.227 178.002 110.568 177.324C110.913 176.642 111.394 176.112 112.011 175.733C112.629 175.35 113.354 175.159 114.188 175.159C114.725 175.159 115.233 175.246 115.71 175.42C116.191 175.591 116.616 175.856 116.983 176.216C117.354 176.576 117.646 177.034 117.858 177.591C118.07 178.144 118.176 178.803 118.176 179.568V180.199H111.023V178.812H116.205C116.201 178.419 116.116 178.068 115.949 177.761C115.782 177.451 115.549 177.206 115.25 177.028C114.955 176.85 114.61 176.761 114.216 176.761C113.795 176.761 113.426 176.864 113.108 177.068C112.79 177.269 112.542 177.534 112.364 177.864C112.189 178.189 112.1 178.547 112.097 178.938V180.148C112.097 180.655 112.189 181.091 112.375 181.455C112.561 181.814 112.82 182.091 113.153 182.284C113.487 182.473 113.877 182.568 114.324 182.568C114.623 182.568 114.894 182.527 115.136 182.443C115.379 182.356 115.589 182.229 115.767 182.062C115.945 181.896 116.08 181.689 116.17 181.443L118.091 181.659C117.97 182.167 117.739 182.61 117.398 182.989C117.061 183.364 116.629 183.655 116.102 183.864C115.576 184.068 114.973 184.17 114.295 184.17ZM122.428 184.176C121.875 184.176 121.376 184.078 120.933 183.881C120.494 183.68 120.145 183.384 119.888 182.994C119.634 182.604 119.507 182.123 119.507 181.551C119.507 181.059 119.598 180.652 119.78 180.33C119.962 180.008 120.21 179.75 120.524 179.557C120.839 179.364 121.193 179.218 121.587 179.119C121.984 179.017 122.395 178.943 122.82 178.898C123.331 178.845 123.746 178.797 124.064 178.756C124.382 178.71 124.613 178.642 124.757 178.551C124.905 178.456 124.979 178.311 124.979 178.114V178.08C124.979 177.652 124.852 177.32 124.598 177.085C124.344 176.85 123.979 176.733 123.501 176.733C122.998 176.733 122.598 176.843 122.303 177.062C122.011 177.282 121.814 177.542 121.712 177.841L119.791 177.568C119.943 177.038 120.193 176.595 120.541 176.239C120.89 175.879 121.316 175.61 121.82 175.432C122.323 175.25 122.88 175.159 123.49 175.159C123.911 175.159 124.329 175.208 124.746 175.307C125.162 175.405 125.543 175.568 125.888 175.795C126.232 176.019 126.509 176.324 126.717 176.71C126.929 177.097 127.036 177.58 127.036 178.159V184H125.058V182.801H124.99C124.865 183.044 124.689 183.271 124.462 183.483C124.238 183.691 123.956 183.86 123.615 183.989C123.278 184.114 122.882 184.176 122.428 184.176ZM122.962 182.665C123.375 182.665 123.732 182.583 124.036 182.42C124.339 182.254 124.571 182.034 124.734 181.761C124.901 181.489 124.984 181.191 124.984 180.869V179.841C124.92 179.894 124.81 179.943 124.655 179.989C124.503 180.034 124.333 180.074 124.143 180.108C123.954 180.142 123.767 180.172 123.581 180.199C123.395 180.225 123.234 180.248 123.098 180.267C122.791 180.309 122.517 180.377 122.274 180.472C122.032 180.566 121.84 180.699 121.7 180.869C121.56 181.036 121.49 181.252 121.49 181.517C121.49 181.896 121.628 182.182 121.905 182.375C122.181 182.568 122.534 182.665 122.962 182.665ZM133.462 175.273V176.864H128.445V175.273H133.462ZM129.683 173.182H131.74V181.375C131.74 181.652 131.782 181.864 131.865 182.011C131.952 182.155 132.066 182.254 132.206 182.307C132.346 182.36 132.501 182.386 132.672 182.386C132.801 182.386 132.918 182.377 133.024 182.358C133.134 182.339 133.217 182.322 133.274 182.307L133.621 183.915C133.511 183.953 133.354 183.994 133.149 184.04C132.948 184.085 132.702 184.112 132.411 184.119C131.895 184.134 131.431 184.057 131.018 183.886C130.606 183.712 130.278 183.443 130.036 183.08C129.797 182.716 129.679 182.261 129.683 181.716V173.182ZM138.952 184.17C138.077 184.17 137.321 183.989 136.685 183.625C136.052 183.258 135.565 182.739 135.224 182.068C134.884 181.394 134.713 180.6 134.713 179.688C134.713 178.79 134.884 178.002 135.224 177.324C135.569 176.642 136.05 176.112 136.668 175.733C137.285 175.35 138.01 175.159 138.844 175.159C139.382 175.159 139.889 175.246 140.366 175.42C140.848 175.591 141.272 175.856 141.639 176.216C142.01 176.576 142.302 177.034 142.514 177.591C142.726 178.144 142.832 178.803 142.832 179.568V180.199H135.679V178.812H140.861C140.857 178.419 140.772 178.068 140.605 177.761C140.438 177.451 140.205 177.206 139.906 177.028C139.611 176.85 139.266 176.761 138.872 176.761C138.452 176.761 138.082 176.864 137.764 177.068C137.446 177.269 137.198 177.534 137.02 177.864C136.846 178.189 136.757 178.547 136.753 178.938V180.148C136.753 180.655 136.846 181.091 137.031 181.455C137.217 181.814 137.476 182.091 137.81 182.284C138.143 182.473 138.533 182.568 138.98 182.568C139.279 182.568 139.55 182.527 139.793 182.443C140.035 182.356 140.245 182.229 140.423 182.062C140.601 181.896 140.736 181.689 140.827 181.443L142.747 181.659C142.626 182.167 142.395 182.61 142.054 182.989C141.717 183.364 141.285 183.655 140.759 183.864C140.232 184.068 139.63 184.17 138.952 184.17ZM151.053 184.176C150.5 184.176 150.001 184.078 149.558 183.881C149.119 183.68 148.77 183.384 148.513 182.994C148.259 182.604 148.132 182.123 148.132 181.551C148.132 181.059 148.223 180.652 148.405 180.33C148.587 180.008 148.835 179.75 149.149 179.557C149.464 179.364 149.818 179.218 150.212 179.119C150.609 179.017 151.02 178.943 151.445 178.898C151.956 178.845 152.371 178.797 152.689 178.756C153.007 178.71 153.238 178.642 153.382 178.551C153.53 178.456 153.604 178.311 153.604 178.114V178.08C153.604 177.652 153.477 177.32 153.223 177.085C152.969 176.85 152.604 176.733 152.126 176.733C151.623 176.733 151.223 176.843 150.928 177.062C150.636 177.282 150.439 177.542 150.337 177.841L148.416 177.568C148.568 177.038 148.818 176.595 149.166 176.239C149.515 175.879 149.941 175.61 150.445 175.432C150.948 175.25 151.505 175.159 152.115 175.159C152.536 175.159 152.954 175.208 153.371 175.307C153.787 175.405 154.168 175.568 154.513 175.795C154.857 176.019 155.134 176.324 155.342 176.71C155.554 177.097 155.661 177.58 155.661 178.159V184H153.683V182.801H153.615C153.49 183.044 153.314 183.271 153.087 183.483C152.863 183.691 152.581 183.86 152.24 183.989C151.903 184.114 151.507 184.176 151.053 184.176ZM151.587 182.665C152 182.665 152.357 182.583 152.661 182.42C152.964 182.254 153.196 182.034 153.359 181.761C153.526 181.489 153.609 181.191 153.609 180.869V179.841C153.545 179.894 153.435 179.943 153.28 179.989C153.128 180.034 152.958 180.074 152.768 180.108C152.579 180.142 152.392 180.172 152.206 180.199C152.02 180.225 151.859 180.248 151.723 180.267C151.416 180.309 151.142 180.377 150.899 180.472C150.657 180.566 150.465 180.699 150.325 180.869C150.185 181.036 150.115 181.252 150.115 181.517C150.115 181.896 150.253 182.182 150.53 182.375C150.806 182.568 151.159 182.665 151.587 182.665ZM159.786 178.886V184H157.729V175.273H159.695V176.756H159.797C159.998 176.267 160.318 175.879 160.757 175.591C161.2 175.303 161.748 175.159 162.399 175.159C163.001 175.159 163.526 175.288 163.973 175.545C164.424 175.803 164.772 176.176 165.018 176.665C165.268 177.153 165.392 177.746 165.388 178.443V184H163.331V178.761C163.331 178.178 163.179 177.722 162.876 177.392C162.577 177.062 162.162 176.898 161.632 176.898C161.272 176.898 160.952 176.977 160.672 177.136C160.395 177.292 160.178 177.517 160.018 177.812C159.863 178.108 159.786 178.466 159.786 178.886ZM171.286 184.17C170.433 184.17 169.695 183.983 169.07 183.608C168.445 183.233 167.96 182.708 167.615 182.034C167.274 181.36 167.104 180.572 167.104 179.67C167.104 178.769 167.274 177.979 167.615 177.301C167.96 176.623 168.445 176.097 169.07 175.722C169.695 175.347 170.433 175.159 171.286 175.159C172.138 175.159 172.876 175.347 173.501 175.722C174.126 176.097 174.609 176.623 174.95 177.301C175.295 177.979 175.467 178.769 175.467 179.67C175.467 180.572 175.295 181.36 174.95 182.034C174.609 182.708 174.126 183.233 173.501 183.608C172.876 183.983 172.138 184.17 171.286 184.17ZM171.297 182.523C171.759 182.523 172.145 182.396 172.456 182.142C172.767 181.884 172.998 181.54 173.149 181.108C173.304 180.676 173.382 180.195 173.382 179.665C173.382 179.131 173.304 178.648 173.149 178.216C172.998 177.78 172.767 177.434 172.456 177.176C172.145 176.919 171.759 176.79 171.297 176.79C170.823 176.79 170.429 176.919 170.115 177.176C169.804 177.434 169.571 177.78 169.416 178.216C169.265 178.648 169.189 179.131 169.189 179.665C169.189 180.195 169.265 180.676 169.416 181.108C169.571 181.54 169.804 181.884 170.115 182.142C170.429 182.396 170.823 182.523 171.297 182.523ZM181.571 175.273V176.864H176.554V175.273H181.571ZM177.793 173.182H179.849V181.375C179.849 181.652 179.891 181.864 179.974 182.011C180.062 182.155 180.175 182.254 180.315 182.307C180.455 182.36 180.611 182.386 180.781 182.386C180.91 182.386 181.027 182.377 181.134 182.358C181.243 182.339 181.327 182.322 181.384 182.307L181.73 183.915C181.62 183.953 181.463 183.994 181.259 184.04C181.058 184.085 180.812 184.112 180.52 184.119C180.005 184.134 179.541 184.057 179.128 183.886C178.715 183.712 178.387 183.443 178.145 183.08C177.906 182.716 177.789 182.261 177.793 181.716V173.182ZM185.536 178.886V184H183.479V172.364H185.49V176.756H185.592C185.797 176.263 186.113 175.875 186.541 175.591C186.973 175.303 187.522 175.159 188.189 175.159C188.795 175.159 189.323 175.286 189.774 175.54C190.225 175.794 190.573 176.165 190.82 176.653C191.07 177.142 191.195 177.739 191.195 178.443V184H189.138V178.761C189.138 178.174 188.986 177.718 188.683 177.392C188.384 177.062 187.964 176.898 187.422 176.898C187.058 176.898 186.732 176.977 186.445 177.136C186.161 177.292 185.937 177.517 185.774 177.812C185.615 178.108 185.536 178.466 185.536 178.886ZM197.155 184.17C196.28 184.17 195.524 183.989 194.888 183.625C194.255 183.258 193.768 182.739 193.428 182.068C193.087 181.394 192.916 180.6 192.916 179.688C192.916 178.79 193.087 178.002 193.428 177.324C193.772 176.642 194.253 176.112 194.871 175.733C195.488 175.35 196.214 175.159 197.047 175.159C197.585 175.159 198.092 175.246 198.57 175.42C199.051 175.591 199.475 175.856 199.842 176.216C200.214 176.576 200.505 177.034 200.717 177.591C200.929 178.144 201.036 178.803 201.036 179.568V180.199H193.882V178.812H199.064C199.06 178.419 198.975 178.068 198.808 177.761C198.642 177.451 198.409 177.206 198.109 177.028C197.814 176.85 197.469 176.761 197.075 176.761C196.655 176.761 196.286 176.864 195.967 177.068C195.649 177.269 195.401 177.534 195.223 177.864C195.049 178.189 194.96 178.547 194.956 178.938V180.148C194.956 180.655 195.049 181.091 195.234 181.455C195.42 181.814 195.679 182.091 196.013 182.284C196.346 182.473 196.736 182.568 197.183 182.568C197.482 182.568 197.753 182.527 197.996 182.443C198.238 182.356 198.448 182.229 198.626 182.062C198.804 181.896 198.939 181.689 199.03 181.443L200.95 181.659C200.829 182.167 200.598 182.61 200.257 182.989C199.92 183.364 199.488 183.655 198.962 183.864C198.435 184.068 197.833 184.17 197.155 184.17ZM202.776 184V175.273H204.77V176.727H204.861C205.02 176.223 205.293 175.835 205.679 175.562C206.069 175.286 206.514 175.148 207.014 175.148C207.128 175.148 207.255 175.153 207.395 175.165C207.539 175.172 207.658 175.186 207.753 175.205V177.097C207.666 177.066 207.527 177.04 207.338 177.017C207.152 176.991 206.973 176.977 206.798 176.977C206.423 176.977 206.086 177.059 205.787 177.222C205.491 177.381 205.259 177.602 205.088 177.886C204.918 178.17 204.832 178.498 204.832 178.869V184H202.776ZM223.139 176.29H221.014C220.954 175.941 220.842 175.633 220.679 175.364C220.516 175.091 220.313 174.86 220.071 174.67C219.829 174.481 219.552 174.339 219.241 174.244C218.935 174.146 218.603 174.097 218.247 174.097C217.615 174.097 217.054 174.256 216.565 174.574C216.077 174.888 215.694 175.35 215.418 175.96C215.141 176.566 215.003 177.307 215.003 178.182C215.003 179.072 215.141 179.822 215.418 180.432C215.698 181.038 216.08 181.496 216.565 181.807C217.054 182.114 217.613 182.267 218.241 182.267C218.59 182.267 218.916 182.222 219.219 182.131C219.526 182.036 219.8 181.898 220.043 181.716C220.289 181.534 220.495 181.311 220.662 181.045C220.832 180.78 220.95 180.477 221.014 180.136L223.139 180.148C223.06 180.701 222.887 181.22 222.622 181.705C222.361 182.189 222.018 182.617 221.594 182.989C221.17 183.356 220.673 183.644 220.105 183.852C219.537 184.057 218.906 184.159 218.213 184.159C217.19 184.159 216.277 183.922 215.474 183.449C214.671 182.975 214.039 182.292 213.577 181.398C213.115 180.504 212.884 179.432 212.884 178.182C212.884 176.928 213.116 175.856 213.582 174.966C214.048 174.072 214.683 173.388 215.486 172.915C216.289 172.441 217.198 172.205 218.213 172.205C218.861 172.205 219.463 172.295 220.02 172.477C220.577 172.659 221.073 172.926 221.509 173.278C221.944 173.627 222.302 174.055 222.582 174.562C222.866 175.066 223.052 175.642 223.139 176.29ZM227.49 184.176C226.937 184.176 226.439 184.078 225.996 183.881C225.556 183.68 225.208 183.384 224.95 182.994C224.696 182.604 224.57 182.123 224.57 181.551C224.57 181.059 224.661 180.652 224.842 180.33C225.024 180.008 225.272 179.75 225.587 179.557C225.901 179.364 226.255 179.218 226.649 179.119C227.047 179.017 227.458 178.943 227.882 178.898C228.393 178.845 228.808 178.797 229.126 178.756C229.445 178.71 229.676 178.642 229.82 178.551C229.967 178.456 230.041 178.311 230.041 178.114V178.08C230.041 177.652 229.914 177.32 229.661 177.085C229.407 176.85 229.041 176.733 228.564 176.733C228.06 176.733 227.661 176.843 227.365 177.062C227.073 177.282 226.876 177.542 226.774 177.841L224.854 177.568C225.005 177.038 225.255 176.595 225.604 176.239C225.952 175.879 226.378 175.61 226.882 175.432C227.386 175.25 227.943 175.159 228.553 175.159C228.973 175.159 229.392 175.208 229.808 175.307C230.225 175.405 230.606 175.568 230.95 175.795C231.295 176.019 231.571 176.324 231.78 176.71C231.992 177.097 232.098 177.58 232.098 178.159V184H230.121V182.801H230.053C229.928 183.044 229.751 183.271 229.524 183.483C229.301 183.691 229.018 183.86 228.678 183.989C228.34 184.114 227.945 184.176 227.49 184.176ZM228.024 182.665C228.437 182.665 228.795 182.583 229.098 182.42C229.401 182.254 229.634 182.034 229.797 181.761C229.964 181.489 230.047 181.191 230.047 180.869V179.841C229.982 179.894 229.873 179.943 229.717 179.989C229.566 180.034 229.395 180.074 229.206 180.108C229.017 180.142 228.829 180.172 228.643 180.199C228.458 180.225 228.297 180.248 228.161 180.267C227.854 180.309 227.579 180.377 227.337 180.472C227.094 180.566 226.903 180.699 226.763 180.869C226.623 181.036 226.553 181.252 226.553 181.517C226.553 181.896 226.691 182.182 226.967 182.375C227.244 182.568 227.596 182.665 228.024 182.665ZM234.166 184V175.273H236.132V176.756H236.234C236.416 176.256 236.717 175.866 237.138 175.585C237.558 175.301 238.06 175.159 238.643 175.159C239.234 175.159 239.732 175.303 240.138 175.591C240.547 175.875 240.835 176.263 241.001 176.756H241.092C241.286 176.271 241.611 175.884 242.07 175.597C242.532 175.305 243.079 175.159 243.712 175.159C244.515 175.159 245.17 175.413 245.678 175.92C246.185 176.428 246.439 177.169 246.439 178.142V184H244.376V178.46C244.376 177.919 244.232 177.523 243.945 177.273C243.657 177.019 243.304 176.892 242.888 176.892C242.392 176.892 242.003 177.047 241.723 177.358C241.446 177.665 241.308 178.064 241.308 178.557V184H239.291V178.375C239.291 177.924 239.155 177.564 238.882 177.295C238.613 177.027 238.261 176.892 237.825 176.892C237.53 176.892 237.261 176.968 237.018 177.119C236.776 177.267 236.583 177.477 236.439 177.75C236.295 178.019 236.223 178.333 236.223 178.693V184H234.166ZM248.526 187.273V175.273H250.548V176.716H250.668C250.774 176.504 250.923 176.278 251.116 176.04C251.31 175.797 251.571 175.591 251.901 175.42C252.23 175.246 252.651 175.159 253.162 175.159C253.836 175.159 254.444 175.331 254.986 175.676C255.531 176.017 255.963 176.523 256.281 177.193C256.603 177.86 256.764 178.678 256.764 179.648C256.764 180.606 256.607 181.42 256.293 182.091C255.978 182.761 255.55 183.273 255.009 183.625C254.467 183.977 253.853 184.153 253.168 184.153C252.668 184.153 252.253 184.07 251.923 183.903C251.594 183.737 251.329 183.536 251.128 183.301C250.931 183.062 250.777 182.837 250.668 182.625H250.582V187.273H248.526ZM250.543 179.636C250.543 180.201 250.622 180.695 250.781 181.119C250.944 181.544 251.177 181.875 251.48 182.114C251.787 182.348 252.158 182.466 252.594 182.466C253.048 182.466 253.429 182.345 253.736 182.102C254.043 181.856 254.274 181.521 254.429 181.097C254.588 180.669 254.668 180.182 254.668 179.636C254.668 179.095 254.59 178.614 254.435 178.193C254.279 177.773 254.048 177.443 253.741 177.205C253.435 176.966 253.052 176.847 252.594 176.847C252.154 176.847 251.781 176.962 251.474 177.193C251.168 177.424 250.935 177.748 250.776 178.165C250.62 178.581 250.543 179.072 250.543 179.636ZM261.037 184.176C260.484 184.176 259.986 184.078 259.543 183.881C259.103 183.68 258.755 183.384 258.497 182.994C258.243 182.604 258.116 182.123 258.116 181.551C258.116 181.059 258.207 180.652 258.389 180.33C258.571 180.008 258.819 179.75 259.134 179.557C259.448 179.364 259.802 179.218 260.196 179.119C260.594 179.017 261.005 178.943 261.429 178.898C261.94 178.845 262.355 178.797 262.673 178.756C262.991 178.71 263.223 178.642 263.366 178.551C263.514 178.456 263.588 178.311 263.588 178.114V178.08C263.588 177.652 263.461 177.32 263.207 177.085C262.954 176.85 262.588 176.733 262.111 176.733C261.607 176.733 261.207 176.843 260.912 177.062C260.62 177.282 260.423 177.542 260.321 177.841L258.401 177.568C258.552 177.038 258.802 176.595 259.151 176.239C259.499 175.879 259.925 175.61 260.429 175.432C260.933 175.25 261.49 175.159 262.099 175.159C262.52 175.159 262.938 175.208 263.355 175.307C263.772 175.405 264.152 175.568 264.497 175.795C264.842 176.019 265.118 176.324 265.327 176.71C265.539 177.097 265.645 177.58 265.645 178.159V184H263.668V182.801H263.599C263.474 183.044 263.298 183.271 263.071 183.483C262.848 183.691 262.565 183.86 262.224 183.989C261.887 184.114 261.491 184.176 261.037 184.176ZM261.571 182.665C261.984 182.665 262.342 182.583 262.645 182.42C262.948 182.254 263.181 182.034 263.344 181.761C263.51 181.489 263.594 181.191 263.594 180.869V179.841C263.529 179.894 263.42 179.943 263.264 179.989C263.113 180.034 262.942 180.074 262.753 180.108C262.563 180.142 262.376 180.172 262.19 180.199C262.005 180.225 261.844 180.248 261.707 180.267C261.401 180.309 261.126 180.377 260.884 180.472C260.641 180.566 260.45 180.699 260.31 180.869C260.17 181.036 260.099 181.252 260.099 181.517C260.099 181.896 260.238 182.182 260.514 182.375C260.791 182.568 261.143 182.665 261.571 182.665ZM267.713 184V175.273H269.77V184H267.713ZM268.747 174.034C268.421 174.034 268.141 173.926 267.906 173.71C267.671 173.491 267.554 173.227 267.554 172.92C267.554 172.61 267.671 172.347 267.906 172.131C268.141 171.911 268.421 171.801 268.747 171.801C269.077 171.801 269.357 171.911 269.588 172.131C269.823 172.347 269.94 172.61 269.94 172.92C269.94 173.227 269.823 173.491 269.588 173.71C269.357 173.926 269.077 174.034 268.747 174.034ZM275.68 187.455C274.942 187.455 274.307 187.354 273.777 187.153C273.247 186.956 272.821 186.691 272.499 186.358C272.177 186.025 271.953 185.655 271.828 185.25L273.68 184.801C273.764 184.972 273.885 185.14 274.044 185.307C274.203 185.477 274.417 185.617 274.686 185.727C274.959 185.841 275.302 185.898 275.714 185.898C276.298 185.898 276.781 185.756 277.163 185.472C277.546 185.191 277.737 184.729 277.737 184.085V182.432H277.635C277.529 182.644 277.374 182.862 277.169 183.085C276.968 183.309 276.701 183.496 276.368 183.648C276.038 183.799 275.624 183.875 275.124 183.875C274.453 183.875 273.845 183.718 273.3 183.403C272.758 183.085 272.326 182.612 272.004 181.983C271.686 181.35 271.527 180.559 271.527 179.608C271.527 178.65 271.686 177.841 272.004 177.182C272.326 176.519 272.76 176.017 273.305 175.676C273.851 175.331 274.459 175.159 275.129 175.159C275.641 175.159 276.061 175.246 276.391 175.42C276.724 175.591 276.989 175.797 277.186 176.04C277.383 176.278 277.533 176.504 277.635 176.716H277.749V175.273H279.777V184.142C279.777 184.888 279.599 185.506 279.243 185.994C278.887 186.483 278.4 186.848 277.783 187.091C277.165 187.333 276.464 187.455 275.68 187.455ZM275.697 182.261C276.133 182.261 276.504 182.155 276.811 181.943C277.118 181.731 277.351 181.426 277.51 181.028C277.669 180.631 277.749 180.153 277.749 179.597C277.749 179.047 277.669 178.566 277.51 178.153C277.355 177.741 277.124 177.42 276.817 177.193C276.514 176.962 276.141 176.847 275.697 176.847C275.239 176.847 274.857 176.966 274.55 177.205C274.243 177.443 274.012 177.771 273.857 178.188C273.701 178.6 273.624 179.07 273.624 179.597C273.624 180.131 273.701 180.598 273.857 181C274.016 181.398 274.249 181.708 274.555 181.932C274.866 182.152 275.247 182.261 275.697 182.261ZM283.942 178.886V184H281.885V175.273H283.851V176.756H283.953C284.154 176.267 284.474 175.879 284.913 175.591C285.357 175.303 285.904 175.159 286.555 175.159C287.158 175.159 287.682 175.288 288.129 175.545C288.58 175.803 288.929 176.176 289.175 176.665C289.425 177.153 289.548 177.746 289.544 178.443V184H287.487V178.761C287.487 178.178 287.336 177.722 287.033 177.392C286.733 177.062 286.319 176.898 285.788 176.898C285.429 176.898 285.108 176.977 284.828 177.136C284.552 177.292 284.334 177.517 284.175 177.812C284.019 178.108 283.942 178.466 283.942 178.886Z" fill="white"/>
</g>
<g filter="url(#filter2_d_12259_8354)">
<path d="M36 220C36 215.582 39.5817 212 44 212H339C343.418 212 347 215.582 347 220V248C347 252.418 343.418 256 339 256H44C39.5817 256 36 252.418 36 248V220Z" fill="white"/>
<path d="M44 212.5H339C343.142 212.5 346.5 215.858 346.5 220V248C346.5 252.142 343.142 255.5 339 255.5H44C39.8579 255.5 36.5 252.142 36.5 248V220C36.5 215.858 39.8579 212.5 44 212.5Z" stroke="#D0D5DD"/>
<path d="M134.972 231.562C134.919 231.066 134.695 230.68 134.301 230.403C133.911 230.127 133.403 229.989 132.778 229.989C132.339 229.989 131.962 230.055 131.648 230.188C131.333 230.32 131.093 230.5 130.926 230.727C130.759 230.955 130.674 231.214 130.67 231.506C130.67 231.748 130.725 231.958 130.835 232.136C130.949 232.314 131.102 232.466 131.295 232.591C131.489 232.712 131.703 232.814 131.938 232.898C132.172 232.981 132.409 233.051 132.648 233.108L133.739 233.381C134.178 233.483 134.6 233.621 135.006 233.795C135.415 233.97 135.78 234.189 136.102 234.455C136.428 234.72 136.686 235.04 136.875 235.415C137.064 235.79 137.159 236.229 137.159 236.733C137.159 237.415 136.985 238.015 136.636 238.534C136.288 239.049 135.784 239.453 135.125 239.744C134.47 240.032 133.676 240.176 132.744 240.176C131.839 240.176 131.053 240.036 130.386 239.756C129.723 239.475 129.205 239.066 128.83 238.528C128.458 237.991 128.258 237.335 128.227 236.562H130.301C130.331 236.968 130.456 237.305 130.676 237.574C130.896 237.843 131.182 238.044 131.534 238.176C131.89 238.309 132.288 238.375 132.727 238.375C133.186 238.375 133.587 238.307 133.932 238.17C134.28 238.03 134.553 237.837 134.75 237.591C134.947 237.341 135.047 237.049 135.051 236.716C135.047 236.413 134.958 236.163 134.784 235.966C134.61 235.765 134.366 235.598 134.051 235.466C133.741 235.33 133.377 235.208 132.96 235.102L131.636 234.761C130.678 234.515 129.92 234.142 129.364 233.642C128.811 233.138 128.534 232.47 128.534 231.636C128.534 230.951 128.72 230.35 129.091 229.835C129.466 229.32 129.975 228.92 130.619 228.636C131.263 228.348 131.992 228.205 132.807 228.205C133.633 228.205 134.356 228.348 134.977 228.636C135.602 228.92 136.093 229.316 136.449 229.824C136.805 230.328 136.989 230.907 137 231.562H134.972ZM141.004 234.886V240H138.947V228.364H140.959V232.756H141.061C141.266 232.263 141.582 231.875 142.01 231.591C142.442 231.303 142.991 231.159 143.658 231.159C144.264 231.159 144.792 231.286 145.243 231.54C145.694 231.794 146.042 232.165 146.288 232.653C146.538 233.142 146.663 233.739 146.663 234.443V240H144.607V234.761C144.607 234.174 144.455 233.718 144.152 233.392C143.853 233.062 143.432 232.898 142.891 232.898C142.527 232.898 142.201 232.977 141.913 233.136C141.629 233.292 141.406 233.517 141.243 233.812C141.084 234.108 141.004 234.466 141.004 234.886ZM151.271 240.176C150.718 240.176 150.22 240.078 149.777 239.881C149.338 239.68 148.989 239.384 148.732 238.994C148.478 238.604 148.351 238.123 148.351 237.551C148.351 237.059 148.442 236.652 148.624 236.33C148.805 236.008 149.054 235.75 149.368 235.557C149.682 235.364 150.036 235.218 150.43 235.119C150.828 235.017 151.239 234.943 151.663 234.898C152.175 234.845 152.589 234.797 152.908 234.756C153.226 234.71 153.457 234.642 153.601 234.551C153.749 234.456 153.822 234.311 153.822 234.114V234.08C153.822 233.652 153.696 233.32 153.442 233.085C153.188 232.85 152.822 232.733 152.345 232.733C151.841 232.733 151.442 232.843 151.146 233.062C150.855 233.282 150.658 233.542 150.555 233.841L148.635 233.568C148.786 233.038 149.036 232.595 149.385 232.239C149.733 231.879 150.16 231.61 150.663 231.432C151.167 231.25 151.724 231.159 152.334 231.159C152.754 231.159 153.173 231.208 153.589 231.307C154.006 231.405 154.387 231.568 154.732 231.795C155.076 232.019 155.353 232.324 155.561 232.71C155.773 233.097 155.879 233.58 155.879 234.159V240H153.902V238.801H153.834C153.709 239.044 153.533 239.271 153.305 239.483C153.082 239.691 152.8 239.86 152.459 239.989C152.122 240.114 151.726 240.176 151.271 240.176ZM151.805 238.665C152.218 238.665 152.576 238.583 152.879 238.42C153.182 238.254 153.415 238.034 153.578 237.761C153.745 237.489 153.828 237.191 153.828 236.869V235.841C153.764 235.894 153.654 235.943 153.499 235.989C153.347 236.034 153.177 236.074 152.987 236.108C152.798 236.142 152.61 236.172 152.425 236.199C152.239 236.225 152.078 236.248 151.942 236.267C151.635 236.309 151.36 236.377 151.118 236.472C150.875 236.566 150.684 236.699 150.544 236.869C150.404 237.036 150.334 237.252 150.334 237.517C150.334 237.896 150.472 238.182 150.749 238.375C151.025 238.568 151.377 238.665 151.805 238.665ZM157.947 240V231.273H159.942V232.727H160.033C160.192 232.223 160.464 231.835 160.851 231.562C161.241 231.286 161.686 231.148 162.186 231.148C162.3 231.148 162.427 231.153 162.567 231.165C162.711 231.172 162.83 231.186 162.925 231.205V233.097C162.838 233.066 162.699 233.04 162.51 233.017C162.324 232.991 162.144 232.977 161.97 232.977C161.595 232.977 161.258 233.059 160.959 233.222C160.663 233.381 160.43 233.602 160.26 233.886C160.089 234.17 160.004 234.498 160.004 234.869V240H157.947ZM167.795 240.17C166.92 240.17 166.165 239.989 165.528 239.625C164.896 239.258 164.409 238.739 164.068 238.068C163.727 237.394 163.557 236.6 163.557 235.688C163.557 234.79 163.727 234.002 164.068 233.324C164.413 232.642 164.894 232.112 165.511 231.733C166.129 231.35 166.854 231.159 167.688 231.159C168.225 231.159 168.733 231.246 169.21 231.42C169.691 231.591 170.116 231.856 170.483 232.216C170.854 232.576 171.146 233.034 171.358 233.591C171.57 234.144 171.676 234.803 171.676 235.568V236.199H164.523V234.812H169.705C169.701 234.419 169.616 234.068 169.449 233.761C169.282 233.451 169.049 233.206 168.75 233.028C168.455 232.85 168.11 232.761 167.716 232.761C167.295 232.761 166.926 232.864 166.608 233.068C166.29 233.269 166.042 233.534 165.864 233.864C165.689 234.189 165.6 234.547 165.597 234.938V236.148C165.597 236.655 165.689 237.091 165.875 237.455C166.061 237.814 166.32 238.091 166.653 238.284C166.987 238.473 167.377 238.568 167.824 238.568C168.123 238.568 168.394 238.527 168.636 238.443C168.879 238.356 169.089 238.229 169.267 238.062C169.445 237.896 169.58 237.689 169.67 237.443L171.591 237.659C171.47 238.167 171.239 238.61 170.898 238.989C170.561 239.364 170.129 239.655 169.602 239.864C169.076 240.068 168.473 240.17 167.795 240.17ZM181.192 240.17C180.339 240.17 179.601 239.983 178.976 239.608C178.351 239.233 177.866 238.708 177.521 238.034C177.18 237.36 177.01 236.572 177.01 235.67C177.01 234.769 177.18 233.979 177.521 233.301C177.866 232.623 178.351 232.097 178.976 231.722C179.601 231.347 180.339 231.159 181.192 231.159C182.044 231.159 182.783 231.347 183.408 231.722C184.033 232.097 184.516 232.623 184.857 233.301C185.201 233.979 185.374 234.769 185.374 235.67C185.374 236.572 185.201 237.36 184.857 238.034C184.516 238.708 184.033 239.233 183.408 239.608C182.783 239.983 182.044 240.17 181.192 240.17ZM181.203 238.523C181.665 238.523 182.052 238.396 182.362 238.142C182.673 237.884 182.904 237.54 183.055 237.108C183.211 236.676 183.288 236.195 183.288 235.665C183.288 235.131 183.211 234.648 183.055 234.216C182.904 233.78 182.673 233.434 182.362 233.176C182.052 232.919 181.665 232.79 181.203 232.79C180.73 232.79 180.336 232.919 180.021 233.176C179.711 233.434 179.478 233.78 179.322 234.216C179.171 234.648 179.095 235.131 179.095 235.665C179.095 236.195 179.171 236.676 179.322 237.108C179.478 237.54 179.711 237.884 180.021 238.142C180.336 238.396 180.73 238.523 181.203 238.523ZM189.176 234.886V240H187.119V231.273H189.085V232.756H189.188C189.388 232.267 189.708 231.879 190.148 231.591C190.591 231.303 191.138 231.159 191.79 231.159C192.392 231.159 192.917 231.288 193.364 231.545C193.814 231.803 194.163 232.176 194.409 232.665C194.659 233.153 194.782 233.746 194.778 234.443V240H192.722V234.761C192.722 234.178 192.57 233.722 192.267 233.392C191.968 233.062 191.553 232.898 191.023 232.898C190.663 232.898 190.343 232.977 190.062 233.136C189.786 233.292 189.568 233.517 189.409 233.812C189.254 234.108 189.176 234.466 189.176 234.886ZM207.253 231.562C207.2 231.066 206.976 230.68 206.582 230.403C206.192 230.127 205.685 229.989 205.06 229.989C204.62 229.989 204.243 230.055 203.929 230.188C203.615 230.32 203.374 230.5 203.207 230.727C203.041 230.955 202.955 231.214 202.952 231.506C202.952 231.748 203.007 231.958 203.116 232.136C203.23 232.314 203.384 232.466 203.577 232.591C203.77 232.712 203.984 232.814 204.219 232.898C204.454 232.981 204.69 233.051 204.929 233.108L206.02 233.381C206.459 233.483 206.882 233.621 207.287 233.795C207.696 233.97 208.062 234.189 208.384 234.455C208.709 234.72 208.967 235.04 209.156 235.415C209.346 235.79 209.44 236.229 209.44 236.733C209.44 237.415 209.266 238.015 208.918 238.534C208.569 239.049 208.065 239.453 207.406 239.744C206.751 240.032 205.957 240.176 205.026 240.176C204.12 240.176 203.334 240.036 202.668 239.756C202.005 239.475 201.486 239.066 201.111 238.528C200.74 237.991 200.539 237.335 200.509 236.562H202.582C202.613 236.968 202.738 237.305 202.957 237.574C203.177 237.843 203.463 238.044 203.815 238.176C204.171 238.309 204.569 238.375 205.009 238.375C205.467 238.375 205.868 238.307 206.213 238.17C206.562 238.03 206.834 237.837 207.031 237.591C207.228 237.341 207.329 237.049 207.332 236.716C207.329 236.413 207.24 236.163 207.065 235.966C206.891 235.765 206.647 235.598 206.332 235.466C206.022 235.33 205.658 235.208 205.241 235.102L203.918 234.761C202.959 234.515 202.202 234.142 201.645 233.642C201.092 233.138 200.815 232.47 200.815 231.636C200.815 230.951 201.001 230.35 201.372 229.835C201.747 229.32 202.257 228.92 202.901 228.636C203.545 228.348 204.274 228.205 205.088 228.205C205.914 228.205 206.637 228.348 207.259 228.636C207.884 228.92 208.374 229.316 208.73 229.824C209.086 230.328 209.27 230.907 209.281 231.562H207.253ZM215.036 240.17C214.183 240.17 213.445 239.983 212.82 239.608C212.195 239.233 211.71 238.708 211.365 238.034C211.024 237.36 210.854 236.572 210.854 235.67C210.854 234.769 211.024 233.979 211.365 233.301C211.71 232.623 212.195 232.097 212.82 231.722C213.445 231.347 214.183 231.159 215.036 231.159C215.888 231.159 216.626 231.347 217.251 231.722C217.876 232.097 218.359 232.623 218.7 233.301C219.045 233.979 219.217 234.769 219.217 235.67C219.217 236.572 219.045 237.36 218.7 238.034C218.359 238.708 217.876 239.233 217.251 239.608C216.626 239.983 215.888 240.17 215.036 240.17ZM215.047 238.523C215.509 238.523 215.895 238.396 216.206 238.142C216.517 237.884 216.748 237.54 216.899 237.108C217.054 236.676 217.132 236.195 217.132 235.665C217.132 235.131 217.054 234.648 216.899 234.216C216.748 233.78 216.517 233.434 216.206 233.176C215.895 232.919 215.509 232.79 215.047 232.79C214.573 232.79 214.179 232.919 213.865 233.176C213.554 233.434 213.321 233.78 213.166 234.216C213.015 234.648 212.939 235.131 212.939 235.665C212.939 236.195 213.015 236.676 213.166 237.108C213.321 237.54 213.554 237.884 213.865 238.142C214.179 238.396 214.573 238.523 215.047 238.523ZM224.77 240.17C223.899 240.17 223.151 239.979 222.526 239.597C221.904 239.214 221.425 238.686 221.088 238.011C220.755 237.333 220.588 236.553 220.588 235.67C220.588 234.784 220.759 234.002 221.099 233.324C221.44 232.642 221.921 232.112 222.543 231.733C223.168 231.35 223.906 231.159 224.759 231.159C225.467 231.159 226.094 231.29 226.639 231.551C227.188 231.809 227.626 232.174 227.952 232.648C228.277 233.117 228.463 233.667 228.509 234.295H226.543C226.463 233.875 226.274 233.525 225.974 233.244C225.679 232.96 225.283 232.818 224.787 232.818C224.366 232.818 223.997 232.932 223.679 233.159C223.361 233.383 223.113 233.705 222.935 234.125C222.76 234.545 222.673 235.049 222.673 235.636C222.673 236.231 222.76 236.742 222.935 237.17C223.109 237.595 223.353 237.922 223.668 238.153C223.986 238.381 224.359 238.494 224.787 238.494C225.09 238.494 225.361 238.437 225.599 238.324C225.842 238.206 226.045 238.038 226.207 237.818C226.37 237.598 226.482 237.331 226.543 237.017H228.509C228.459 237.634 228.277 238.182 227.963 238.659C227.649 239.133 227.221 239.504 226.679 239.773C226.137 240.038 225.501 240.17 224.77 240.17ZM230.197 240V231.273H232.254V240H230.197ZM231.232 230.034C230.906 230.034 230.625 229.926 230.391 229.71C230.156 229.491 230.038 229.227 230.038 228.92C230.038 228.61 230.156 228.347 230.391 228.131C230.625 227.911 230.906 227.801 231.232 227.801C231.561 227.801 231.841 227.911 232.072 228.131C232.307 228.347 232.425 228.61 232.425 228.92C232.425 229.227 232.307 229.491 232.072 229.71C231.841 229.926 231.561 230.034 231.232 230.034ZM236.881 240.176C236.328 240.176 235.83 240.078 235.386 239.881C234.947 239.68 234.598 239.384 234.341 238.994C234.087 238.604 233.96 238.123 233.96 237.551C233.96 237.059 234.051 236.652 234.233 236.33C234.415 236.008 234.663 235.75 234.977 235.557C235.292 235.364 235.646 235.218 236.04 235.119C236.438 235.017 236.848 234.943 237.273 234.898C237.784 234.845 238.199 234.797 238.517 234.756C238.835 234.71 239.066 234.642 239.21 234.551C239.358 234.456 239.432 234.311 239.432 234.114V234.08C239.432 233.652 239.305 233.32 239.051 233.085C238.797 232.85 238.432 232.733 237.955 232.733C237.451 232.733 237.051 232.843 236.756 233.062C236.464 233.282 236.267 233.542 236.165 233.841L234.244 233.568C234.396 233.038 234.646 232.595 234.994 232.239C235.343 231.879 235.769 231.61 236.273 231.432C236.777 231.25 237.333 231.159 237.943 231.159C238.364 231.159 238.782 231.208 239.199 231.307C239.616 231.405 239.996 231.568 240.341 231.795C240.686 232.019 240.962 232.324 241.17 232.71C241.383 233.097 241.489 233.58 241.489 234.159V240H239.511V238.801H239.443C239.318 239.044 239.142 239.271 238.915 239.483C238.691 239.691 238.409 239.86 238.068 239.989C237.731 240.114 237.335 240.176 236.881 240.176ZM237.415 238.665C237.828 238.665 238.186 238.583 238.489 238.42C238.792 238.254 239.025 238.034 239.188 237.761C239.354 237.489 239.438 237.191 239.438 236.869V235.841C239.373 235.894 239.263 235.943 239.108 235.989C238.956 236.034 238.786 236.074 238.597 236.108C238.407 236.142 238.22 236.172 238.034 236.199C237.848 236.225 237.688 236.248 237.551 236.267C237.244 236.309 236.97 236.377 236.727 236.472C236.485 236.566 236.294 236.699 236.153 236.869C236.013 237.036 235.943 237.252 235.943 237.517C235.943 237.896 236.081 238.182 236.358 238.375C236.634 238.568 236.987 238.665 237.415 238.665ZM245.614 228.364V240H243.557V228.364H245.614ZM254.626 233.58L252.751 233.784C252.698 233.595 252.606 233.417 252.473 233.25C252.344 233.083 252.17 232.949 251.95 232.847C251.731 232.744 251.462 232.693 251.143 232.693C250.715 232.693 250.356 232.786 250.064 232.972C249.776 233.157 249.634 233.398 249.638 233.693C249.634 233.947 249.727 234.153 249.916 234.312C250.109 234.472 250.428 234.602 250.871 234.705L252.359 235.023C253.185 235.201 253.799 235.483 254.2 235.869C254.606 236.256 254.81 236.761 254.814 237.386C254.81 237.936 254.649 238.42 254.331 238.841C254.017 239.258 253.579 239.583 253.018 239.818C252.458 240.053 251.814 240.17 251.087 240.17C250.018 240.17 249.159 239.947 248.507 239.5C247.856 239.049 247.467 238.422 247.342 237.619L249.348 237.426C249.439 237.82 249.632 238.117 249.928 238.318C250.223 238.519 250.607 238.619 251.081 238.619C251.57 238.619 251.962 238.519 252.257 238.318C252.556 238.117 252.706 237.869 252.706 237.574C252.706 237.324 252.609 237.117 252.416 236.955C252.227 236.792 251.931 236.667 251.53 236.58L250.041 236.267C249.204 236.093 248.585 235.799 248.183 235.386C247.782 234.97 247.583 234.443 247.587 233.807C247.583 233.269 247.729 232.803 248.024 232.409C248.323 232.011 248.738 231.705 249.268 231.489C249.803 231.269 250.418 231.159 251.115 231.159C252.138 231.159 252.943 231.377 253.53 231.812C254.121 232.248 254.486 232.837 254.626 233.58Z" fill="#344054"/>
</g>
</g>
</g>
<defs>
<filter id="filter0_dd_12259_8354" x="0" y="0" width="383" height="312" filterUnits="userSpaceOnUse" color-interpolation-filters="sRGB">
<feFlood flood-opacity="0" result="BackgroundImageFix"/>
<feColorMatrix in="SourceAlpha" type="matrix" values="0 0 0 0 0 0 0 0 0 0 0 0 0 0 0 0 0 0 127 0" result="hardAlpha"/>
<feMorphology radius="4" operator="erode" in="SourceAlpha" result="effect1_dropShadow_12259_8354"/>
<feOffset dy="8"/>
<feGaussianBlur stdDeviation="4"/>
<feComposite in2="hardAlpha" operator="out"/>
<feColorMatrix type="matrix" values="0 0 0 0 0.0627451 0 0 0 0 0.0941176 0 0 0 0 0.156863 0 0 0 0.03 0"/>
<feBlend mode="normal" in2="BackgroundImageFix" result="effect1_dropShadow_12259_8354"/>
<feColorMatrix in="SourceAlpha" type="matrix" values="0 0 0 0 0 0 0 0 0 0 0 0 0 0 0 0 0 0 127 0" result="hardAlpha"/>
<feMorphology radius="4" operator="erode" in="SourceAlpha" result="effect2_dropShadow_12259_8354"/>
<feOffset dy="20"/>
<feGaussianBlur stdDeviation="12"/>
<feComposite in2="hardAlpha" operator="out"/>
<feColorMatrix type="matrix" values="0 0 0 0 0.0627451 0 0 0 0 0.0941176 0 0 0 0 0.156863 0 0 0 0.08 0"/>
<feBlend mode="normal" in2="effect1_dropShadow_12259_8354" result="effect2_dropShadow_12259_8354"/>
<feBlend mode="normal" in="SourceGraphic" in2="effect2_dropShadow_12259_8354" result="shape"/>
</filter>
<filter id="filter1_d_12259_8354" x="34" y="155" width="315" height="48" filterUnits="userSpaceOnUse" color-interpolation-filters="sRGB">
<feFlood flood-opacity="0" result="BackgroundImageFix"/>
<feColorMatrix in="SourceAlpha" type="matrix" values="0 0 0 0 0 0 0 0 0 0 0 0 0 0 0 0 0 0 127 0" result="hardAlpha"/>
<feOffset dy="1"/>
<feGaussianBlur stdDeviation="1"/>
<feComposite in2="hardAlpha" operator="out"/>
<feColorMatrix type="matrix" values="0 0 0 0 0.0627451 0 0 0 0 0.0941176 0 0 0 0 0.156863 0 0 0 0.05 0"/>
<feBlend mode="normal" in2="BackgroundImageFix" result="effect1_dropShadow_12259_8354"/>
<feBlend mode="normal" in="SourceGraphic" in2="effect1_dropShadow_12259_8354" result="shape"/>
</filter>
<filter id="filter2_d_12259_8354" x="34" y="211" width="315" height="48" filterUnits="userSpaceOnUse" color-interpolation-filters="sRGB">
<feFlood flood-opacity="0" result="BackgroundImageFix"/>
<feColorMatrix in="SourceAlpha" type="matrix" values="0 0 0 0 0 0 0 0 0 0 0 0 0 0 0 0 0 0 127 0" result="hardAlpha"/>
<feOffset dy="1"/>
<feGaussianBlur stdDeviation="1"/>
<feComposite in2="hardAlpha" operator="out"/>
<feColorMatrix type="matrix" values="0 0 0 0 0.0627451 0 0 0 0 0.0941176 0 0 0 0 0.156863 0 0 0 0.05 0"/>
<feBlend mode="normal" in2="BackgroundImageFix" result="effect1_dropShadow_12259_8354"/>
<feBlend mode="normal" in="SourceGraphic" in2="effect1_dropShadow_12259_8354" result="shape"/>
</filter>
<radialGradient id="paint0_radial_12259_8354" cx="0" cy="0" r="1" gradientUnits="userSpaceOnUse" gradientTransform="translate(168 168) rotate(90) scale(168 168)">
<stop/>
<stop offset="1" stop-opacity="0"/>
</radialGradient>
<clipPath id="clip0_12259_8354">
<path d="M20 12C20 5.37258 25.3726 0 32 0H351C357.627 0 363 5.37258 363 12V260C363 266.627 357.627 272 351 272H32C25.3726 272 20 266.627 20 260V12Z" fill="white"/>
</clipPath>
</defs>
</svg>
