<?xml version="1.0" encoding="UTF-8"?>
<svg id="Layer_1" data-name="Layer 1" xmlns="http://www.w3.org/2000/svg" viewBox="0 0 1080 1080">
  <defs>
    <style>
      .cls-1 {
        fill: none;
      }

      .cls-2 {
        fill: #e6242a;
      }
    </style>
  </defs>
  <path class="cls-2" d="m573.38,610.25c-4.89,3.91-10.11,6.99-15.93,8.96-21.98,7.47-47.31-.09-59.73-21.22-4.42-7.51-6.63-15.67-6.68-24.38-.08-16.03-.12-32.07-.11-48.1,0-3.58.06-7.18.51-10.73.68-5.48,4.14-9.02,9.54-10.19,3.97-.86,7.94-.98,11.81.51,5.5,2.11,8.39,6.27,9.13,12,.19,1.43.21,2.9.21,4.34.01,13.99-.01,27.99.02,41.98.01,3.95-.1,7.93.38,11.83.99,8.2,8.18,14.7,16.44,15.24,8.02.53,14.33-2.34,18.26-9.53,1.94-3.53,2.44-7.47,2.46-11.46.07-13.76.14-27.53.2-41.29.02-3.62-.22-7.27.05-10.87.56-7.59,6.44-13.11,14.05-13.26,2.48-.05,5.02.13,7.43.65,5.2,1.11,8.85,5.25,9.24,10.79.37,5.38.31,10.8.32,16.2.03,12.99,0,25.99-.01,38.98,0,3.17-.15,6.35,0,9.52.15,3.2,1.78,5.69,4.52,7.35,6.21,3.77,12.68,4.38,19.15.88,6.32-3.42,9.58-8.98,9.64-16.11.13-17.31.06-34.62.05-51.93,0-4.62,1.06-8.85,4.54-12.12,4.77-4.49,10.51-5.16,16.52-3.54,5.71,1.53,8.68,5.81,9.98,11.34.28,1.18.37,2.43.37,3.64.03,11.22.1,22.45-.01,33.67-.08,8.67-.22,17.34-.68,26-.47,8.98-4.07,16.86-9.7,23.79-7.28,8.95-16.39,15.18-27.79,17.5-15.69,3.18-30.12.19-42.99-9.56-.36-.27-.72-.54-1.18-.89Z"/>
  <path class="cls-2" d="m782.65,518.92c0,12.49.06,24.99-.03,37.48-.04,5.26-.11,10.54-.62,15.77-.97,9.91-4.86,18.75-10.92,26.58-9.73,12.57-22.43,20.56-38.17,22.9-18.99,2.83-35.98-2.03-50.23-15.16-10.11-9.32-16.18-20.85-17.89-34.55-2.31-18.59,1.98-35.28,14.78-49.29,9.45-10.34,21.32-16.27,35.23-18.09,4.25-.56,8.51-.87,12.75,0,6.41,1.33,10.7,5.95,11.27,12.49.22,2.53.16,5.21-.42,7.67-1.38,5.84-6.37,9.86-12.42,10.37-4.3.36-8.6.61-12.68,2.22-10.35,4.11-16.17,11.84-17.48,22.72-1.77,14.72,8.07,27.98,22.67,30.85,6.72,1.32,12.99-.42,18.87-3.63,9.35-5.11,13.96-13.21,14-23.71.14-30.26.08-60.52.15-90.78.01-5.4,1.75-10.11,6.47-13.24,6.24-4.13,16.24-2.98,20.96,2.36,2.59,2.93,3.63,6.43,3.63,10.28,0,13.72,0,27.44,0,41.16,0,1.86,0,3.73,0,5.59.02,0,.05,0,.07,0Z"/>
  <path class="cls-2" d="m275.35,503.82c2.82.38,5.58.47,8.19,1.16,5.45,1.45,9.32,6.29,9.94,11.93.46,4.17,0,8.17-2.29,11.77-2.91,4.58-7.35,6.41-12.59,6.63-6.71.28-12.93,2.05-18.21,6.3-7.49,6.01-10.69,14.02-10.31,23.49.47,11.85,9.25,22.21,21.27,25.06,2.63.62,5.37.85,8.07,1.1,7.21.66,12.87,5.55,14.19,12.6,1.29,6.89-2.38,16.77-11.88,18.04-3.34.45-6.81.38-10.18.1-10.93-.93-20.89-4.6-29.62-11.27-12.21-9.32-19.56-21.66-22.13-36.75-2.61-15.32-.26-29.86,8.05-43.13,8.76-13.97,21.57-22.27,37.61-25.66,3.27-.69,6.64-.92,9.9-1.36Z"/>
  <path class="cls-2" d="m795.22,593.71c0-4.41-.52-8.89.14-13.2.74-4.86.1-9.63.29-14.43.18-4.67-.02-9.35.05-14.03.31-20.77,10.95-34.74,29.07-43.6,6.5-3.18,13.51-4.41,20.77-4.12,6.29.26,11.19,2.92,13.88,8.68,2.63,5.63,2.49,11.29-1.2,16.52-2.44,3.46-6.08,5.04-10.12,5.84-2.98.59-6,1.05-8.9,1.91-8.03,2.38-12.43,8.45-12.43,16.8,0,17.08.03,34.17-.04,51.25,0,2.24-.29,4.55-.86,6.72-1.54,5.81-6.32,9.65-12.38,9.98-2.51.14-5.12.14-7.56-.39-6.04-1.31-10.15-6.22-10.45-12.54-.25-5.12-.05-10.26-.05-15.39-.07,0-.14,0-.21,0Z"/>
  <path class="cls-2" d="m301.98,594.42c0-4.63-.36-9.3.08-13.89.91-9.56-.11-19.1.21-28.65.42-12.48,4.56-23.32,13.28-32.29,8.39-8.64,18.53-13.92,30.63-14.98,3.22-.28,6.58-.26,9.75.31,6.55,1.17,11.47,7.25,11.81,13.9.19,3.77-.35,7.34-2.59,10.49-2.55,3.59-6.2,5.31-10.42,6.08-2.94.54-5.95.89-8.79,1.76-8.09,2.48-12.5,8.76-12.51,17.42,0,16.81.04,33.62-.05,50.43-.01,2.5-.34,5.1-1.1,7.48-2.23,6.93-8.67,10.85-15.91,9.95-1.3-.16-2.61-.38-3.86-.75-6.64-1.98-10.34-6.8-10.49-13.75-.09-4.49-.02-8.99-.02-13.49,0,0,0,0-.01,0Z"/>
  <g>
    <path class="cls-2" d="m423.91,622.97c-14.81-.12-27.41-4.09-38.29-12.85-11.26-9.07-17.96-20.92-20.53-35.05-2.35-12.91-1.16-25.53,4.47-37.48,7.99-16.97,21.4-27.43,39.61-31.58,13.73-3.13,27.23-2,40,4.12,17.07,8.18,27.78,21.72,31.71,40.16,3.75,17.56.66,34.07-9.93,48.77-9.25,12.83-21.94,20.36-37.52,23.04-1.16.2-2.33.41-3.5.5-2.31.18-4.62.29-6.02.38Zm-28.68-59.37c0,15.52,12.25,27.76,27.75,27.76,15,0,28.13-11.72,28.18-27.94.05-15.2-12.75-27.52-28.29-27.52-15.45,0-27.64,12.23-27.64,27.7Z"/>
    <path class="cls-1" d="m395.23,563.6c0-15.47,12.19-27.7,27.64-27.7,15.54,0,28.34,12.32,28.29,27.52-.05,16.22-13.18,27.94-28.18,27.94-15.5,0-27.74-12.24-27.75-27.76Z"/>
  </g>
</svg>